<?xml version="1.0" encoding="UTF-8" standalone="no"?>
<svg width="546px" height="702px" viewBox="0 0 546 702" version="1.1" xmlns="http://www.w3.org/2000/svg" xmlns:xlink="http://www.w3.org/1999/xlink">
    <!-- Generator: Sketch 42 (36781) - http://www.bohemiancoding.com/sketch -->
    <title>admin2</title>
    <desc>Created with Sketch.</desc>
    <defs></defs>
    <g id="Page-1" stroke="none" stroke-width="1" fill="none" fill-rule="evenodd">
        <g id="it-all" transform="translate(1.000000, 1.000000)" fill-rule="nonzero" stroke="#6E6E6E" stroke-width="0.4" fill="#CEE3F5">
            <g id="admin2">
                <path d="M330.8,381.3 L327.7,382.6 L325.7,381.4 L326.2,378.5 L331,379.9 L330.8,381.3 Z M356,361.5 L356.8,361.2 L357.8,361.6 L358.6,365.6 L362,366.7 L362,368.4 L359.3,368 L358.6,369.8 L360,371.3 L358.3,372.4 L359,374.6 L356.6,375.8 L356.4,378.3 L358.6,378.7 L359.6,381.1 L357.9,383.7 L355.1,383.9 L354.7,385.2 L348.3,388 L348.5,385.6 L350.4,384.9 L353.2,381.6 L354.6,380.9 L354.4,378.8 L349.3,376.1 L345.7,372.7 L342.5,373.4 L341.7,375.3 L336.7,373.6 L336.2,376.7 L334.3,376 L334.1,371.3 L332.3,367.6 L338.2,364.7 L339.2,366.3 L344.4,366.3 L346.1,362.6 L353.4,363.6 L355.3,363.3 L356,361.5 Z" id="IT.NA"></path>
                <path d="M247.4,620.2 L248.3,619.7 L250.9,622.3 L250,625.3 L248.3,625.2 L245.4,622.6 L244.6,620.2 L247.4,620.2 Z M261.6,552.4 L263.9,553.2 L262.7,554 L259.3,552.5 L261.6,552.4 Z M292.7,544.9 L294,547.7 L296.4,550.2 L296.1,551.8 L293.8,553.6 L291.2,553.4 L291.8,557.1 L292.8,558.2 L298.3,558.2 L298.8,561.2 L295.9,563.1 L293.8,563.5 L290.2,566.5 L290.7,569.1 L289.9,573.5 L284.5,573.7 L278.7,574.5 L275.4,570.2 L271.9,569.1 L270.2,567.7 L267,560.1 L268.5,559.5 L269.3,555.7 L268.5,553.8 L270.2,547.8 L273.5,544 L275,544.5 L277.5,541.2 L280.5,540.5 L280.1,537.5 L282,537.1 L285,543.2 L289.1,546 L292.7,544.9 Z" id="IT.TP"></path>
                <path d="M295.9,563.1 L298.8,561.2 L298.3,558.2 L292.8,558.2 L291.8,557.1 L291.2,553.4 L293.8,553.6 L296.1,551.8 L296.4,550.2 L294,547.7 L292.7,544.9 L297.1,541.6 L296.2,538.8 L298.2,535.8 L303.4,536.4 L308.5,533.5 L311.2,536.3 L312.3,540.4 L318.2,539.7 L319.9,542.9 L327.7,547.1 L331.8,547.3 L336.9,545.2 L338.7,543.6 L342.6,542.2 L346.8,543.6 L350.3,543.2 L353.4,547.7 L355.3,549.3 L355.7,554.1 L355,557.3 L356.6,559.1 L355.4,562.5 L351.2,564.6 L349.5,568 L345.8,566.6 L341.9,570.5 L338.5,569.2 L337.1,565.1 L333.6,562.2 L331.8,562.4 L329.9,565 L327.9,564.2 L325.8,566.9 L323.7,567.7 L316.2,567.8 L313.5,570.1 L314.3,573.4 L312.3,574.6 L310.7,571.2 L311,567.1 L307.2,569.8 L305.8,569.5 L304.5,566.8 L301.1,565.4 L298.3,565.7 L295.9,563.1 Z M343.3,564.6 L345.3,564.6 L347,563 L344.6,562.1 L343.3,564.6 Z M303.2,570.3 L301.9,570.5 L301.7,569.1 L303.3,569.2 L303.2,570.3 Z" id="IT.PA"></path>
                <path d="M388.1,519.9 L385.6,518.5 L386,516.3 L387.7,518 L388.1,519.9 Z M386.2,515 L382.9,513.5 L383.3,511.5 L385.6,510.9 L386.7,513.3 L386.2,515 Z M381,509.6 L377.6,508.4 L380.3,507.4 L381.5,508.3 L381,509.6 Z M355.7,554.1 L355.3,549.3 L353.4,547.7 L350.3,543.2 L354.8,543.6 L360.1,542.4 L362.3,541 L366.1,541.1 L371.8,538.5 L376.3,533.6 L379.3,533.3 L384.4,531.3 L387.2,532.6 L391.4,533 L393.3,534.3 L397.5,532.3 L400.2,527 L400.5,528.4 L402.7,528.9 L407.8,527 L412.9,522.7 L415.1,522.4 L419.6,523.6 L416.5,525.9 L416.3,528.4 L413.2,535.6 L408.5,542.5 L402.8,553.2 L399.1,549.4 L394.6,547.9 L389.1,548.9 L386.4,545.2 L383.8,546.8 L381.7,545.1 L378.4,547.3 L377.2,551.1 L379.9,551.7 L380.3,554.6 L378,554.1 L374.6,555.5 L371.3,555.1 L369.4,553.7 L369.4,551.2 L366.2,553.4 L364.6,555.8 L363.7,553.5 L361.8,552.5 L355.7,554.1 Z" id="IT.ME"></path>
                <path d="M281.5,699.8 L281.1,700 L276.8,698.5 L281.6,698.6 L281.5,699.8 Z M289.9,573.5 L290.7,569.1 L290.2,566.5 L293.8,563.5 L295.9,563.1 L298.3,565.7 L301.1,565.4 L304.5,566.8 L305.8,569.5 L307.2,569.8 L311,567.1 L310.7,571.2 L312.3,574.6 L314.3,573.4 L313.5,570.1 L316.2,567.8 L323.7,567.7 L325.8,566.9 L327.9,564.2 L329.9,565 L332.3,565.4 L334.3,568 L330.3,570.9 L327.8,570.5 L328.2,576.3 L326.3,577.8 L331,580.2 L335.8,579.7 L337,581.6 L339.3,582.6 L338.1,584.2 L341.7,585.7 L345,588.8 L343.9,594.3 L346.5,598.6 L341.7,600 L339.5,599.8 L336.4,597.6 L332.5,596.7 L329.1,595 L323.3,590.2 L317.6,588.9 L308.9,583.6 L307.6,581.3 L303.6,578.2 L297.7,577.6 L296.5,578.1 L293.8,574.3 L289.9,573.5 Z M303.2,570.3 L303.3,569.2 L301.7,569.1 L301.9,570.5 L303.2,570.3 Z" id="IT.AG"></path>
                <polygon id="IT.NU" points="137.1 390.7 137.4 394.1 140.8 399.2 140 402.2 137.3 407.8 135.6 408.5 131.7 414.8 131.7 417.1 129.4 418.8 127.4 417.7 122.5 424.5 118.4 426.7 116.4 429.2 117.5 431.6 115.9 433.3 115.7 435.8 112.6 436.2 111.8 437.3 112 441.3 110.1 441.1 110 439.1 102.8 435.8 102.1 434.9 103.2 432 100.7 430.9 102 427.6 103.9 428.5 104.7 426.6 103.6 423.8 102.7 418.7 101.1 417.8 91.9 418.8 87.5 417.3 85.4 414.6 85.1 411.5 87.4 412 89.3 410.1 93.7 408.9 94.2 406.3 100 408.3 104 412.3 105.4 410.7 111.2 408.4 113 406 114.2 402.7 115.6 401.4 112.5 400.4 111.4 398.3 117.4 397.5 120.7 394.8 122.2 391.3 125.9 391.5 129.1 389 132 388.7 134 390.4"></polygon>
                <polygon id="IT.OG" points="115.7 435.8 115.9 433.3 117.5 431.6 116.4 429.2 118.4 426.7 122.5 424.5 127.4 417.7 129.4 418.8 131.7 417.1 133 421.9 136.7 425.6 134.9 431.1 135.1 439.2 134.2 441.6 134.2 447.7 133 452.5 132.9 457.9 128.5 456.4 125.7 453.6 121.3 451.9 120.8 449.4 119 448.5 120.7 446.4 117.1 443 115.4 439.8"></polygon>
                <polygon id="IT.MS" points="149.2 167.4 152 168 154.8 169.4 157.2 172.2 156.2 174.8 154.6 175.8 154.3 180.4 156.4 183.5 155.7 186.2 152.6 190.2 150.9 187.7 147.5 185.7 148.7 183 146 181.8 145.4 179.7 141.9 178.8 142.2 177.2 140.4 177.6 139.7 173.5 135.3 170.4 132.6 167.2 134.9 165.5 138.9 160 143.2 160.3 145.6 161.6 145.7 164.1"></polygon>
                <path d="M424.2,379.8 L423.6,381.3 L422.3,379.6 L424.3,378.9 L424.2,379.8 Z M466.2,390.9 L463,396.7 L461.3,402.4 L457.3,408.3 L446.9,408.6 L446.4,413.1 L444.1,409.5 L445.7,406.9 L443.4,404.1 L444,397.8 L442,398.2 L441.6,399.8 L437.7,401.1 L434.8,399.2 L433.4,394.8 L431.2,393.2 L432.3,390.5 L430,385.6 L430.8,382.3 L427.5,379.5 L427.6,378.1 L431.5,375.3 L429.8,371 L429.9,369.4 L435.4,366.4 L440.2,371.2 L443,373.3 L444.8,373.4 L447.4,370.2 L453.1,369.7 L457.6,371.9 L456.9,373.3 L458.1,375 L458.3,381.9 L460.1,386.8 L462.2,386.3 L466.2,390.9 Z" id="IT.MT"></path>
                <path d="M363.8,363 L362.7,363.3 L363.2,360.1 L364.1,361.4 L363.8,363 Z M357.8,361.6 L356.8,361.2 L356,361.5 L355.1,359.7 L351.2,359.7 L350.6,355.9 L347.9,354.5 L347.5,353.1 L350.4,353.5 L352.1,351.8 L350,347.9 L351.2,345.1 L352.9,343.9 L350.8,341.7 L353.7,338.8 L357.8,339.5 L360.6,337.5 L363.6,337.2 L365.4,334.8 L367.8,335.7 L372.7,333.6 L375.3,331.8 L379.9,334.6 L380.5,337 L379.4,340.4 L382,341.9 L382.9,343.8 L381.2,345.6 L376,344.5 L376.5,348.4 L375.2,350.4 L376.7,352.4 L376.8,354.5 L369.8,359.1 L367.8,357.9 L366.1,360.8 L363.8,358.3 L358.9,359 L357.8,361.6 Z" id="IT.BN"></path>
                <path d="M343.3,564.6 L344.6,562.1 L347,563 L345.3,564.6 L343.3,564.6 Z M366.3,601.3 L362,604.6 L361.2,604.7 L358.4,602.3 L350.7,598.5 L346.5,598.6 L343.9,594.3 L345,588.8 L341.7,585.7 L338.1,584.2 L339.3,582.6 L337,581.6 L335.8,579.7 L331,580.2 L326.3,577.8 L328.2,576.3 L327.8,570.5 L330.3,570.9 L334.3,568 L332.3,565.4 L329.9,565 L331.8,562.4 L333.6,562.2 L337.1,565.1 L338.5,569.2 L341.9,570.5 L345.8,566.6 L349.5,568 L350.5,568.4 L349.5,573.3 L350.3,576.1 L347.3,579.5 L348.2,584.5 L352.1,585.6 L356.8,584.4 L359.4,586.4 L361,586.2 L362.7,590.2 L363.2,593.5 L365.6,594.1 L367.4,596.3 L365.6,599.3 L366.3,601.3 Z" id="IT.CL"></path>
                <polygon id="IT.AN" points="285.8 199.4 289.3 202.2 295.9 205.9 299.2 207.2 300.5 205.8 303.5 208.8 305.6 209.9 307.3 215 306.1 218.3 304.9 218.6 302.3 216.9 296.4 218.9 294 220.3 292 219.9 291.1 217.4 289.5 217.3 287.7 219.8 283.3 219 282.3 219.7 281.8 223.4 279.8 226.5 276.9 228.9 274.3 229 274.7 231.7 273 233.1 270.4 228.8 269.9 226.1 267.9 222.8 268.2 217.8 277.1 208.6 278.4 205.5 280.6 203.7 281.5 201.1"></polygon>
                <path d="M253.5,210.7 L252.5,210 L253.3,208.2 L254.1,210 L253.5,210.7 Z M290.6,254 L292.2,256.6 L292,258.7 L290,259.3 L289.6,260.9 L289.5,263.3 L288.1,266.4 L283.9,267.9 L282,267.5 L280.8,269 L276.9,269 L274.5,265.4 L270.1,267.9 L268.9,270.1 L268.1,268.5 L264.3,265.1 L263.4,262 L262.1,261.7 L260.6,263.7 L258.6,262.4 L256.4,265 L254.3,264.1 L252.1,265.9 L252,263 L249.3,260.7 L250.7,255.1 L249.4,251.7 L239,250.7 L236.7,252.6 L236,254.5 L233.1,254.9 L233.9,253.6 L233,251.6 L234.7,244.3 L232.7,243.3 L231.9,239.8 L233.3,236.6 L235.9,234.9 L236.3,232.4 L239.4,232.1 L244.6,229.1 L243.7,227.5 L241.3,228.7 L240.9,225.3 L238.6,224.5 L238.2,222.1 L236.5,221.8 L240.4,218.2 L239,216 L240.7,214.7 L243.5,209.4 L247.1,210.8 L249.9,209 L249.9,212.1 L248.7,213.5 L251.5,214.7 L253.6,213.8 L257.2,215.2 L261.5,220 L265.3,219.6 L268.2,217.8 L267.9,222.8 L269.9,226.1 L270.4,228.8 L273,233.1 L272.6,237.6 L275.3,240.2 L275.6,245 L276.4,247.6 L278.9,249.9 L282.6,250.1 L286.7,254 L287.4,255.6 L290.6,254 Z" id="IT.PG"></path>
                <path d="M72.6,484 L76.5,484.9 L77.4,487.7 L76.1,493.1 L74.8,493.4 L72,487.3 L72.6,484 Z M70,484.8 L67.6,484.6 L66.2,481.6 L67.2,480.1 L70,479.4 L70,484.8 Z M74.5,464.1 L75.2,463.1 L80.7,462.2 L86.6,468.3 L88.6,468.5 L89.4,473.5 L90.6,475.1 L91.2,478.8 L93.7,481.2 L95.6,485.9 L93.9,488.4 L90.6,488.2 L88.8,489.4 L86.5,489 L84.3,493.9 L82.9,493.6 L81.9,487.7 L79.3,487.3 L77.9,484.7 L76.4,484 L76.1,481.1 L74.7,480.6 L73.2,477.2 L75.8,474 L75.3,470.6 L73.3,468.2 L74.6,466.2 L74.5,464.1 Z" id="IT.CI"></path>
                <path d="M72.2,363.9 L72.1,366.3 L68.4,367.6 L68.2,370.6 L66.5,370.4 L67.4,367.7 L69.6,366 L69.7,363.8 L71.9,362.6 L72.2,363.9 Z M74.6,405.8 L73.4,400.9 L71.9,399.8 L71,395.7 L68.9,394.8 L66.6,396.1 L66.6,393.6 L64.8,394 L64,396.5 L63.1,392.8 L64.6,391.8 L65.8,388.9 L62.9,386.5 L66.4,378.3 L66.4,375.4 L65,374.5 L66.1,371.7 L67.7,372.9 L67.5,375.6 L71,379.3 L80.7,380.8 L84.3,379.2 L86.2,376.6 L89.3,375.1 L91.9,375.6 L94,373.9 L97.8,374.2 L101.2,373.2 L101.8,376.2 L98.2,377.2 L98.3,379 L102.4,379.9 L103.9,383.5 L103.6,389.8 L108.1,391.7 L110,390.8 L111.7,394.6 L111.4,398.3 L112.5,400.4 L115.6,401.4 L114.2,402.7 L113,406 L111.2,408.4 L105.4,410.7 L104,412.3 L100,408.3 L94.2,406.3 L93.7,408.9 L89.3,410.1 L87.4,412 L85.1,411.5 L81,405.8 L79.3,405.2 L76.4,406.8 L74.6,405.8 Z" id="IT.SS"></path>
                <path d="M124.2,358.8 L122.6,359.1 L123.7,355.7 L124.6,357.2 L124.2,358.8 Z M122.5,357.2 L119.9,357.4 L119.7,356.4 L121.9,354.5 L122.5,357.2 Z M94,373.9 L97.2,368.9 L98.7,368.4 L102.9,363 L106.9,362.2 L110.1,359.2 L110.5,355.7 L113.2,354.5 L114.9,356 L115.7,358.6 L117.9,359 L118,357.5 L122.9,362.3 L122.9,364.7 L124.1,361.5 L128.6,363.1 L127.3,364.7 L126.1,369.3 L128,368.2 L128.9,369.7 L130.9,369.1 L132.5,370.8 L129.6,370.5 L128.2,374.4 L126.1,374.3 L129,375.9 L132.1,375 L130.8,376.7 L135.9,379.6 L132.9,382.3 L135,384.8 L137.1,390.7 L134,390.4 L132,388.7 L129.1,389 L125.9,391.5 L122.2,391.3 L120.7,394.8 L117.4,397.5 L111.4,398.3 L111.7,394.6 L110,390.8 L108.1,391.7 L103.6,389.8 L103.9,383.5 L102.4,379.9 L98.3,379 L98.2,377.2 L101.8,376.2 L101.2,373.2 L97.8,374.2 L94,373.9 Z" id="IT.OT"></path>
                <path d="M189.7,288.9 L189,289.7 L186.2,286.9 L187.1,285.3 L189.7,288.9 Z M178.4,252.3 L180.2,247.6 L181.9,248.8 L181.9,245.2 L179.1,244.1 L178.8,242.1 L179.6,239.9 L182.4,238.9 L187.3,238.7 L192.9,236.7 L193.8,237.7 L193.9,240.9 L194.9,243 L198.3,243.4 L200.9,242.6 L204.5,243.3 L207.3,243 L207.4,248 L209.1,249.9 L211.5,250.7 L214,249 L218.7,250.8 L220,259.7 L225,259.7 L227.8,263.2 L227,265.5 L227.1,268.5 L222,273.1 L218.3,273.9 L217.4,277 L219.4,278.7 L219.2,281.1 L214.6,282 L212.6,285.7 L208.2,283.8 L201.7,283.3 L200.6,286.5 L196.5,284.4 L197.3,281.8 L199.6,282.1 L200.6,279.6 L200.5,277.2 L199.1,274.6 L197.8,275 L195.4,270.6 L192.2,268.5 L191.4,265.9 L186.9,262.8 L179.8,260.5 L181.2,258.6 L181.7,255 L178.4,252.3 Z" id="IT.GR"></path>
                <path d="M139.2,248.8 L137.5,247.6 L139.3,244.8 L140.6,246.6 L139.2,248.8 Z M178.8,242.1 L179.1,244.1 L181.9,245.2 L181.9,248.8 L180.2,247.6 L178.4,252.3 L175.2,251.3 L171,251.9 L170.2,253.4 L168.3,249.5 L170,247.4 L170.9,244 L171.2,239.9 L169.7,232.7 L166.1,225.4 L162.5,220.8 L160.7,219.2 L159.5,214 L167.1,210.4 L168.5,212.1 L167.4,215.6 L168.6,220.9 L168.5,224.7 L170.5,227.1 L170.7,229.6 L173.3,231.3 L177.8,230.4 L176.4,233.4 L177.2,235.8 L175.5,237.1 L175.5,239.2 L178.8,242.1 Z M154.2,260.2 L159,260.9 L159.3,259.5 L163,260.6 L164.9,256.9 L166.9,258.3 L166.4,260 L165.9,262.4 L164.6,263.2 L166.5,265.7 L164.3,265.7 L161.7,263.2 L157.5,265.1 L153.8,265 L152,263.8 L152.2,261.1 L154.2,260.2 Z" id="IT.LI"></path>
                <path d="M242.8,199.5 L241.8,197.1 L244,197.5 L244.6,198.3 L242.8,199.5 Z M238.6,201 L241.9,201.8 L246.7,200.1 L249.9,202.8 L248.6,205.2 L247.8,202.8 L246.5,204.9 L243,207.3 L243.5,209.4 L240.7,214.7 L239,216 L240.4,218.2 L236.5,221.8 L238.2,222.1 L238.6,224.5 L240.9,225.3 L241.3,228.7 L243.7,227.5 L244.6,229.1 L239.4,232.1 L236.3,232.4 L235.9,234.9 L233.3,236.6 L230.3,237.6 L227.7,234 L224.3,233.2 L221.6,231 L220.1,228.2 L216,225.8 L214.5,224 L214.4,220.4 L211.7,218.6 L210.6,216.7 L208.1,214.8 L209.2,213.4 L212.9,212.3 L212.4,209.6 L214.2,209.2 L217.1,205.5 L215.6,203.5 L217.9,196.5 L219.6,194.7 L221.5,194.3 L225.7,197.4 L230.5,198.6 L232.8,200.4 L237.1,201.4 L238.6,201 Z" id="IT.AR"></path>
                <polygon id="IT.FE" points="248.8 138 244.3 135.1 242.7 143.2 243.9 148.1 242 150.9 240.1 152.2 235.3 153.2 233.4 152.5 232.6 150.5 227.2 151.7 226 153.2 223.3 153.4 222 151.8 223.1 148.4 221.4 147.6 218.1 148.6 215.1 145.1 209 141.9 205 140.5 200.4 144.9 200.300003 140.3 201.4 139.1 202.7 137.2 204.6 136.6 203.2 135 198.7 132.9 199.6 130.4 201.6 129.5 206.7 130 212.4 131.1 216.2 132.8 220.2 130.3 222.8 127.8 225.9 127.2 231.1 127.1 235.2 127.8 237.4 129.7 241.2 130.2 243.2 129.5 244.3 133.8 246.6 135.2"></polygon>
                <polygon id="IT.RA" points="243.9 148.1 244.7 149.7 244.8 156.7 246.6 164.2 249.9 172.1 248.3 174.4 245.6 172.3 242.7 173.3 242.2 170.8 240.6 171.6 237.7 170 234.3 166.6 231.9 171.2 228.3 176.2 225.6 175.1 222.7 175.3 221.2 179.1 217.4 180 215.4 179.4 216.4 178 214.6 176.7 212.7 177.5 214.1 174.4 216.6 172.4 219.2 167.8 222.3 167.7 225 163 223.2 158.5 221.6 157.1 223.3 153.4 226 153.2 227.2 151.7 232.6 150.5 233.4 152.5 235.3 153.2 240.1 152.2 242 150.9"></polygon>
                <polygon id="IT.FI" points="221.2 179.1 222.4 179.6 221.3 182.8 218.4 187.7 219.9 189.2 221.5 194.3 219.6 194.7 217.9 196.5 215.6 203.5 217.1 205.5 214.2 209.2 212.4 209.6 212.9 212.3 209.2 213.4 208.1 214.8 206.6 216.2 203.8 216.7 202.6 215.9 201.6 217.8 199.3 218.8 198.4 216.9 196.2 219.5 192.9 215.8 189.6 216.9 188.7 221.1 184.6 220 183.4 216.4 183 210.9 185.7 210.5 186.4 207.4 184.5 204.4 181.3 205.1 177.6 201.1 178.3 199.4 179.9 200.2 182.1 199.1 183.9 200.4 188.7 199.3 189.3 200.9 192.8 202.4 192.9 199.3 196.3 196.6 198.3 185.8 198.6 181.4 200.9 180.4 198.8 179.5 198.6 178.1 202.4 177.3 206.7 173.4 208.4 173.7 211.3 177.3 212.7 177.5 212.7 177.5 214.6 176.7 216.4 178 215.4 179.4 217.4 180"></polygon>
                <polygon id="IT.FC" points="249.9 172.1 251.4 174.1 253.2 175.8 252 177 253.3 180.1 249.3 182.8 250.8 184.2 248 188.6 244.5 190.9 241 190.7 240.3 196.5 238.6 201 237.1 201.4 232.8 200.4 230.5 198.6 225.7 197.4 221.5 194.3 219.9 189.2 218.4 187.7 221.3 182.8 222.4 179.6 221.2 179.1 222.7 175.3 225.6 175.1 228.3 176.2 231.9 171.2 234.3 166.6 237.7 170 240.6 171.6 242.2 170.8 242.7 173.3 245.6 172.3 248.3 174.4"></polygon>
                <path d="M253.2,175.8 L254.2,177.4 L258.5,180.4 L261.1,183.7 L264.7,186.4 L266.6,186.9 L265.9,192.4 L263.7,194.8 L261.7,195 L259.7,192 L258,193 L257.3,191.3 L254.9,190.1 L254.7,186.8 L252.1,187.9 L250.7,190.5 L252.3,192.2 L249.3,193.9 L246.7,200.1 L241.9,201.8 L238.6,201 L240.3,196.5 L241,190.7 L244.5,190.9 L248,188.6 L250.8,184.2 L249.3,182.8 L253.3,180.1 L252,177 L253.2,175.8 Z M242.8,199.5 L244.6,198.3 L244,197.5 L241.8,197.1 L242.8,199.5 Z" id="IT.RN"></path>
                <polygon id="IT.GE" points="86.7 165.9 84.8 163.3 88.3 161.4 87.6 159.4 85.4 159.2 83.8 157.7 85.4 155.7 86 153.4 90.8 154 92.8 158.7 95.1 155.2 98.8 154.3 97.4 150.3 99.4 147.7 100.9 147.7 104.5 150.8 106.5 151.5 109.1 153.8 111.5 151.9 115.7 152.3 117.9 153.7 120.1 152.9 123.9 155.6 124 158 122.2 160.6 121.6 163.5 123.3 164 125.2 167.4 124.5 169.1 127.1 171.8 124.9 175.9 123.7 174.2 121.7 174.5 119 172.5 118.7 171.2 112.7 167.6 111.8 170.5 109 169.1 108.3 167 102.7 165.6 99.4 164.1 96 164 95.2 163.1 90.8 163.3"></polygon>
                <polygon id="IT.SV" points="83.8 157.7 85.4 159.2 87.6 159.4 88.3 161.4 84.8 163.3 86.7 165.9 83.8 167.3 79.5 170.5 77.1 175.2 76.9 177.2 72.8 179.2 69.3 182.6 68.5 186.1 65.7 189.8 66.3 191.4 64.7 192.4 63.1 190.1 59 188.7 58.7 187.4 60.8 184.7 59.2 181.6 58.3 180.1 60.9 179.2 62.5 177.5 62.4 169.9 65.2 167.6 66.7 164.4 68.3 163.3 67.8 160.4 70.2 156.5 70.7 157 70.9 157.3 75 159.8 77.3 157.7"></polygon>
                <polygon id="IT.VS" points="74.5 464.1 74 462.7 77.6 456.3 77 451.3 76.8 445.1 80.1 448.7 81.6 449 84.4 449.7 87.6 452.9 91.1 453 95.4 450.9 97.7 448.4 99.6 444.1 102.8 445.3 105.4 445.7 104.7 452.6 102.5 458.2 102.9 462.4 101.2 463.6 101.7 465.7 99.4 467.1 92.5 466.8 88.6 468.5 86.6 468.3 80.7 462.2 75.2 463.1"></polygon>
                <path d="M239.3,109.2 L240,108 L240.4,112.7 L241.6,113.8 L243.6,111.9 L244.8,115.6 L243.2,117.9 L241,119.2 L239.3,118.9 L237.7,122.4 L236.3,121.9 L232.9,118.6 L232.3,117.3 L229.5,117.5 L230.5,114.6 L235.1,113.5 L237.5,114.1 L239.5,110.8 L239.3,109.2 Z M270.6,73.4 L271.8,74.4 L273.1,78.3 L276.4,84.6 L275,85.6 L270.1,86.4 L263.3,91.3 L256.3,95.1 L247.9,99.1 L249.5,95.2 L254.1,93 L251.6,90.6 L249,93.3 L245.2,95 L242,97.6 L241,100.8 L241.6,101.8 L239.6,107.1 L237.3,106.9 L237.1,108.2 L234.2,106.2 L232.3,107 L232,104.3 L229.5,102.1 L231.5,98.5 L229.6,97.7 L231.8,91.5 L234,89.8 L238.1,90.5 L240,93.3 L245.1,90.2 L246.9,90.9 L248.6,89.9 L248.4,87.2 L250,86.5 L252,83.8 L255.5,83.6 L257.9,82.5 L258.100006,76.4 L259.2,76.3 L263,72.9 L264.5,74.8 L266.3,73.3 L267.4,74.5 L269.8,74.7 L270.6,73.4 Z" id="IT.VE"></path>
                <polygon id="IT.CA" points="110.1 441.1 112 441.3 111.8 437.3 112.6 436.2 115.7 435.8 115.4 439.8 117.1 443 120.7 446.4 119 448.5 120.8 449.4 121.3 451.9 125.7 453.6 128.5 456.4 132.9 457.9 132.1 460.8 132.9 461.9 131.5 467 131 471.4 132.5 472.8 130 475 129.3 478.7 130 479.8 128.9 482.7 127.3 483.6 123.5 483.6 118.9 479.3 116.4 477.8 112 477.8 110.5 479.9 109.1 479.5 104.5 475.4 103.7 476.7 106.4 478.4 103.5 482.4 103.6 484.9 104.8 488.1 103.4 491.8 95.8 498.6 93.5 496.9 89.3 495.3 85.8 497.8 83.8 497.3 84.3 493.9 86.5 489 88.8 489.4 90.6 488.2 93.9 488.4 95.6 485.9 93.7 481.2 91.2 478.8 90.6 475.1 89.4 473.5 88.6 468.5 92.5 466.8 99.4 467.1 101.7 465.7 101.2 463.6 102.9 462.4 102.5 458.2 104.7 452.6 105.4 445.7 102.8 445.3 105.6 441.9"></polygon>
                <polygon id="IT.PI" points="159.5 214 158 200.1 157.9 199.7 162.7 199.7 164.9 199.1 166 202.1 167.5 203.2 173 203 175.1 200.2 177.6 201.1 181.3 205.1 184.5 204.4 186.4 207.4 185.7 210.5 183 210.9 183.4 216.4 184.6 220 188.7 221.1 191.1 225.2 190.9 227.4 189 228.8 190.8 232.1 190.6 233.9 188 234.4 187.3 238.7 182.4 238.9 179.6 239.9 178.8 242.1 175.5 239.2 175.5 237.1 177.2 235.8 176.4 233.4 177.8 230.4 173.3 231.3 170.7 229.6 170.5 227.1 168.5 224.7 168.6 220.9 167.4 215.6 168.5 212.1 167.1 210.4"></polygon>
                <polygon id="IT.RE" points="152 168 152.6 166.4 155.6 164 163.2 154.1 163.9 147.8 164.6 145.6 164.5 140.4 165.7 136.8 165.6 134.4 167.2 132.8 170 133 172.8 131.5 174.8 128.6 177.2 128.6 178.5 131.1 183.8 132.8 183.4 135.3 182 136.2 180.8 139.3 181.9 140.3 180.8 144.2 181.1 148.2 179.6 150.2 179.4 154.4 177.5 157.8 175.2 159.8 171.9 166.1 169.3 167 168.4 171.6 166.7 174.8 163.6 174.2 161.4 171.9 157.2 172.2 154.8 169.4 153.4 168.9"></polygon>
                <polygon id="IT.LU" points="157.9 199.7 155.6 193.4 152.6 190.2 155.7 186.2 156.4 183.5 154.3 180.4 154.6 175.8 156.2 174.8 157.2 172.2 161.4 171.9 163.6 174.2 166.7 174.8 167.3 177.1 171.1 180.7 172.8 180.7 176.9 182.5 178.4 186.3 175.6 189.8 175 196.2 177.4 197.3 178.3 199.4 177.6 201.1 175.1 200.2 173 203 167.5 203.2 166 202.1 164.9 199.1 162.7 199.7"></polygon>
                <polygon id="IT.BO" points="192 182.3 189.2 180.3 186.5 183.9 181.8 181.3 181.4 179 183.3 174.1 186.1 175.1 187.9 173.9 187.8 169.7 190.4 169.3 191.2 167.3 190.6 165 191.3 163.1 189 161.1 191.4 159.2 192.4 155.9 194.3 155.5 194.8 151.4 192.4 148.7 194.4 140.6 195.3 139.9 201.4 139.1 200.3 140.3 200.4 144.9 205 140.5 209 141.9 215.1 145.1 218.1 148.6 221.4 147.6 223.1 148.4 222 151.8 223.3 153.4 221.6 157.1 223.2 158.5 225 163 222.3 167.7 219.2 167.8 216.6 172.4 214.6 173.4 214.1 174.4 212.7 177.5 212.7 177.5 211.3 177.3 208.4 173.7 206.7 173.4 202.4 177.3 198.6 178.1 198.8 179.5 200.9 180.4 198.6 181.4 198.4 181.4"></polygon>
                <polygon id="IT.PT" points="181.8 181.3 186.5 183.9 189.2 180.3 192 182.3 192.1 183.8 190.7 188.2 192.8 189.4 191.1 192.7 190.9 197.9 188.7 199.3 183.9 200.4 182.1 199.1 179.9 200.2 178.3 199.4 177.4 197.3 175 196.2 175.6 189.8 178.4 186.3 176.9 182.5 172.8 180.7 174.5 178.7 177 178.4"></polygon>
                <path d="M416.7,423.5 L415.7,421.1 L411.5,416.4 L411.5,414.3 L413.3,411.2 L413.2,409.3 L416.7,405.5 L416.9,402.5 L413.5,399.7 L412.8,396.4 L407.2,393.2 L404.3,389.7 L403.2,385.5 L399.7,383.3 L401.4,379.8 L398.9,378.9 L396,376 L394.1,370.6 L394.9,369.2 L394.9,365.8 L399.5,365.3 L402.7,362.5 L403.9,358.3 L402.8,355.7 L404.3,352.3 L412.3,352 L416.2,349.7 L418.3,351.7 L420.8,352.5 L424.7,356.3 L423,360.6 L429.2,362.8 L431.3,361.5 L432.8,362.1 L433.7,363.2 L435.4,366.4 L429.9,369.4 L429.8,371 L431.5,375.3 L427.6,378.1 L427.5,379.5 L430.8,382.3 L430,385.6 L432.3,390.5 L431.2,393.2 L433.4,394.8 L434.8,399.2 L437.7,401.1 L441.6,399.8 L442,398.2 L444,397.8 L443.4,404.1 L445.7,406.9 L444.1,409.5 L446.4,413.1 L446,416.9 L444.5,420.8 L445.1,422.6 L442.6,420.6 L440.7,420.5 L437.7,422.4 L431.8,423.4 L429.1,421 L429,418.7 L427.2,419.2 L425.9,417.9 L423.7,419.2 L421.5,418 L417.9,420.9 L416.7,423.5 Z M424.2,379.8 L424.3,378.9 L422.3,379.6 L423.6,381.3 L424.2,379.8 Z" id="IT.PZ"></path>
                <polygon id="IT.CZ" points="462.6 508.6 460.9 508.8 455.6 506.5 454.9 503.9 455.5 502.8 453.2 501.3 450.2 497.8 450.6 493.5 451.6 491.2 447.6 488.2 446.1 489.7 443.9 489.2 443.7 483.8 442.8 481.7 440.4 480.6 437.2 475.1 440.2 474.1 444.7 471.2 447.1 470.6 450.5 471.2 452.9 473.5 455.3 472.8 455.6 467.2 459.6 466 460.8 464.4 463.3 466.9 464.4 470.2 467.2 471.9 471 472 474.1 474.2 475.6 477.4 475.4 479.3 467.9 483 462.6 487.3 461.1 489.3 459.7 493.2 462.5 504.8"></polygon>
                <polygon id="IT.RC" points="454.9 503.9 455.6 506.5 460.9 508.8 462.6 508.6 462.3 511.7 458.2 516.1 452.3 519.5 450.8 521.1 444.9 529.7 443.5 538.3 442 541.7 437.9 543.9 435 543.3 426.4 544.4 421.6 542.2 420 539.7 421 537.6 419.1 534.8 420 531.6 419 527 419.7 525.7 426 522.9 430.8 510.7 431.1 508.7 436.5 506.9 438.9 505.1 444 507.9 446.3 508.1 448.6 511.3 452.9 511.5 453.7 509 451.8 506.6 453.2 503.2"></polygon>
                <polygon id="IT.CE" points="332.3 367.6 330.1 364.1 327.8 362.6 327.4 360.1 324.4 355.3 319.1 350.1 321.9 349 324.5 345.7 324.7 343.8 323.8 338.8 328.3 335.4 332.1 339.8 335.3 339.8 333.9 336.1 335.4 333.5 340.1 333.3 347.5 336 351.2 336.9 353.7 338.8 350.8 341.7 352.9 343.9 351.2 345.1 350 347.9 352.1 351.8 350.4 353.5 347.5 353.1 347.9 354.5 350.6 355.9 351.2 359.7 355.1 359.7 356 361.5 355.3 363.3 353.4 363.6 346.1 362.6 344.4 366.3 339.2 366.3 338.2 364.7"></polygon>
                <polygon id="IT.LT" points="324.7 343.8 324.5 345.7 321.9 349 319.1 350.1 317.5 349 312.3 349.5 310.9 350.5 311.6 352.3 299.8 347.6 294.4 348.6 290.4 350.7 289.4 352.3 287.3 352.3 284 346.2 279.9 342.2 277.5 341.2 274.4 341.2 273.5 338.6 269 334.8 266.3 333.4 264.2 329.8 265 327.8 268.1 327.2 268.7 330.3 270.5 330.1 272.8 332 274.6 329.3 277.2 327.7 277.3 324.1 280.9 323.4 282.1 326.2 284.3 328.2 285.2 331.2 289.1 333 292.2 330.5 293.4 332.1 296.5 333.7 298.1 337.1 296.4 339.3 299.2 341.2 303.9 341 304.3 337.5 305.9 337.6 309.7 339.8 311.1 342.6 313.5 345.5 317.1 343.5 320.9 345.7"></polygon>
                <path d="M402.8,355.7 L403.9,358.3 L402.7,362.5 L399.5,365.3 L394.9,365.8 L394.9,369.2 L394.1,370.6 L391.9,369.9 L390,372.9 L389.6,376.9 L386.6,377.8 L384.5,375.1 L377.7,374.2 L374.1,372.9 L372.3,373.5 L367.4,373.4 L364.4,371 L362.2,372.5 L360,371.3 L358.6,369.8 L359.3,368 L362,368.4 L362,366.7 L358.6,365.6 L357.8,361.6 L358.9,359 L363.8,358.3 L366.1,360.8 L367.8,357.9 L369.8,359.1 L376.8,354.5 L376.7,352.4 L375.2,350.4 L376.5,348.4 L376,344.5 L381.2,345.6 L382.9,343.8 L384.4,342.8 L387.9,344.4 L388,347.9 L386.4,351.2 L390.2,353.8 L395.9,353.3 L398,354.6 L402.8,355.7 Z M363.8,363 L364.1,361.4 L363.2,360.1 L362.7,363.3 L363.8,363 Z" id="IT.AV"></path>
                <polygon id="IT.IS" points="339 310.1 341.3 308.2 344.8 310.6 345.4 309.9 348.3 312 349.7 316.2 351.2 315.5 350.9 317.4 352.5 318.4 352.3 320.6 348.7 322.7 348.6 323.7 352.3 325.9 350.7 330.6 347.8 332.5 347.5 336 340.1 333.3 335.4 333.5 333.9 336.1 335.3 339.8 332.1 339.8 328.3 335.4 330.3 331.8 329.1 325.8 326.8 322.3 329 322.3 332 319.6 333.6 319.7 337.4 316.7 335.3 314.1"></polygon>
                <polygon id="IT.BA" points="435.4 366.4 433.7 363.2 432.8 362.1 435.1 358.2 435.4 354.4 437.6 349.9 437.9 346.9 441.2 344.2 445.5 346.4 447 341.2 449.4 342.7 460.6 345.4 463.2 346.5 471.3 348.3 478.4 351.4 481.9 353.5 485.6 357.3 487.8 358.3 484.7 362.3 485.1 363.7 488.6 364.7 488.6 366.6 486.8 367.2 485.6 367.7 482.3 366.6 478.2 368.1 477.7 370.2 471.9 370.6 471.2 368.3 468.5 368.8 467.3 371.9 464.4 370.9 461.9 372.7 460.8 370.6 457.6 371.9 453.1 369.7 447.4 370.2 444.8 373.4 443 373.3 440.2 371.2"></polygon>
                <polygon id="IT.BR" points="486.8 367.2 488.6 366.6 488.6 364.7 485.1 363.7 484.7 362.3 487.8 358.3 492 361.7 495.5 363.1 499.6 363.7 505 365.5 509.7 368.3 515 369.2 515.2 370.6 517.5 370.1 519.5 372.9 519.5 375.7 522.6 377.7 516 383.7 511.5 385.5 509.6 387.5 505.5 386.3 502.6 384 500.5 383.3 498.6 385.2 494.4 382.4 492.6 379.2 492.9 376.1 491.1 374 489.9 370.8"></polygon>
                <polygon id="IT.LE" points="509.6 387.5 511.5 385.5 516 383.7 522.6 377.7 529.4 380.7 536.3 387.3 539.9 391.2 544.6 400.1 543.4 403.9 541.3 406.1 540.1 412.7 540.7 415 539.7 420.1 535.4 418.3 532.1 418.3 525.1 414.6 521 409.4 522.1 408.1 519.4 406.3 520.9 405 520.4 402.3 516.7 399.2 515.6 394.5 512.4 392.7 508.5 392.9 509.5 389"></polygon>
                <polygon id="IT.TA" points="509.6 387.5 509.5 389 508.5 392.9 496.7 393.4 482.3 388.5 483.5 386.3 482.6 384.4 485.8 384.1 486.9 382.5 483.4 382.5 480.4 383.9 479.6 382.5 474.1 382.4 470.9 384.3 468.2 387.5 466.2 390.9 462.2 386.3 460.1 386.8 458.3 381.9 458.1 375 456.9 373.3 457.6 371.9 460.8 370.6 461.9 372.7 464.4 370.9 467.3 371.9 468.5 368.8 471.2 368.3 471.9 370.6 477.7 370.2 478.2 368.1 482.3 366.6 485.6 367.7 486.8 367.2 489.9 370.8 491.1 374 492.9 376.1 492.6 379.2 494.4 382.4 498.6 385.2 500.5 383.3 502.6 384 505.5 386.3"></polygon>
                <polygon id="IT.CT" points="402.8 553.2 400.5 557 401.2 558.7 399.2 568 396.2 572.6 396.6 580.9 393.6 579.9 391.2 580.3 387.1 578.3 384.8 580 382 583.3 385.9 584.2 385.6 586.9 381.8 589.8 382.3 590.9 385.7 591.1 386.3 592.7 385.2 595.5 383 595.5 381 597.6 378.7 596.3 372.5 600.7 369.9 600 366.3 601.3 365.6 599.3 367.4 596.3 365.6 594.1 363.2 593.5 362.7 590.2 361 586.2 363.6 586.8 366 586.1 365 584 369 585 368.4 583.3 372.1 581.6 371.8 579.9 374 578.5 371.4 576.8 368.7 576.8 368 573.9 369.4 571.4 373.4 571.3 376.4 570.2 380.6 573.1 381.8 568.6 383.3 567.3 380.9 563.6 381 560.3 378.6 562.1 377.1 561.5 377.7 558.4 376.8 556.8 378 554.1 380.3 554.6 379.9 551.7 377.2 551.1 378.4 547.3 381.7 545.1 383.8 546.8 386.4 545.2 389.1 548.9 394.6 547.9 399.1 549.4"></polygon>
                <polygon id="IT.RG" points="366.3 601.3 369.9 600 372.5 600.7 378.7 596.3 381 597.6 383 595.5 385.3 600.8 388.8 603.7 390 606.8 389.2 607.3 386.2 604.9 387 608.3 390.5 610.2 390.1 612.1 386.8 611.7 387.5 613.9 392.8 615.3 394.2 617 394.6 620.9 393.8 621.7 388.8 619.5 384 621.7 379.2 620.4 377.8 618.8 369.3 616.9 364.3 607.9 361.2 604.7 362 604.6"></polygon>
                <polygon id="IT.PE" points="333 270.8 336.4 274.3 338.1 275.6 336.9 277.5 334.2 277.1 332.2 282.6 330.3 284.1 333 289 331.6 291.6 332.7 293.5 332.8 296.8 331.7 297.9 328.7 298.7 322.6 293.8 319.5 295.3 318.4 294.7 318.8 288.9 320.2 287.4 318.2 281.2 316.2 278.5 318.6 273.8 320.7 274.2 321.8 272.8 323.7 273.2 326 270.7 329.8 270.1"></polygon>
                <polygon id="IT.RI" points="298.1 268.4 296.5 270.2 289.7 269.8 287.6 272.9 289.1 276.3 287.8 279.6 289.9 281.1 289.4 284.9 291.1 285.7 292.3 288.4 296.8 293.1 298.8 293.4 296.3 294.9 296.3 296.7 293.2 297.4 287 295 284.1 298.6 282.6 298.1 280.6 299.9 279.2 299 276.7 299.5 275.1 297.1 272 294.9 268.9 297.5 265.7 295.9 264.9 292.1 265.7 291.8 263.1 288.9 262.6 290.2 260.7 288.8 258.5 287.5 258 283.4 260.9 284.3 263.7 282.3 264.4 278.5 266.8 279.6 269.3 278.8 269 276.7 271.7 274.3 276.1 271.8 276.9 269 280.8 269 282 267.5 283.9 267.9 288.1 266.4 289.5 263.3 289.6 260.9 292.9 260.1 296.2 263.4 298.5 265.9"></polygon>
                <polygon id="IT.TE" points="298.1 268.4 298.5 265.9 296.2 263.4 300.2 262.3 300.8 260.6 302.8 259.6 304.4 255.7 305.9 255.9 311.1 254.7 312.3 252 320.7 249 322.9 255.2 325.7 261.1 329.4 266.9 333 270.8 329.8 270.1 326 270.7 323.7 273.2 321.8 272.8 320.7 274.2 318.6 273.8 316.2 278.5 314.9 277.5 308 277.1 305.6 277.6 300.2 272.7"></polygon>
                <polygon id="IT.FR" points="300.1 310.7 299.7 315.1 301.9 315 306.3 316.9 307.7 318.4 309.9 318.3 312.8 315.7 316 316.5 317.4 318.8 319.7 318.8 324.2 320.3 326.8 322.3 329.1 325.8 330.3 331.8 328.3 335.4 323.8 338.8 324.7 343.8 320.9 345.7 317.1 343.5 313.5 345.5 311.1 342.6 309.7 339.8 305.9 337.6 304.3 337.5 303.9 341 299.2 341.2 296.4 339.3 298.1 337.1 296.5 333.7 293.4 332.1 292.2 330.5 291.3 330.2 290.7 326.3 288.2 324.6 288.1 323.1 284.6 320.6 283.9 316.9 287.2 314.1 291.8 314.5 296.7 308.2 296.7 308.2"></polygon>
                <polygon id="IT.AQ" points="300.1 310.7 296.7 308.2 295.9 308.3 287.4 304.1 284.2 303.7 283.4 299.1 284.1 298.6 287 295 293.2 297.4 296.3 296.7 296.3 294.9 298.8 293.4 296.8 293.1 292.3 288.4 291.1 285.7 289.4 284.9 289.9 281.1 287.8 279.6 289.1 276.3 287.6 272.9 289.7 269.8 296.5 270.2 298.1 268.4 300.2 272.7 305.6 277.6 308 277.1 314.9 277.5 316.2 278.5 318.2 281.2 320.2 287.4 318.8 288.9 318.4 294.7 319.5 295.3 322.6 293.8 328.7 298.7 331.7 297.9 332.5 298.8 331.8 302.8 332.7 306.1 332.1 306.8 333.8 309.7 337.3 309.1 339 310.1 335.3 314.1 337.4 316.7 333.6 319.7 332 319.6 329 322.3 326.8 322.3 324.2 320.3 319.7 318.8 317.4 318.8 316 316.5 312.8 315.7 309.9 318.3 307.7 318.4 306.3 316.9 301.9 315 299.7 315.1"></polygon>
                <polygon id="IT.RM" points="296.7 308.2 291.8 314.5 287.2 314.1 283.9 316.9 284.6 320.6 288.1 323.1 288.2 324.6 290.7 326.3 291.3 330.2 292.2 330.5 289.1 333 285.2 331.2 284.3 328.2 282.1 326.2 280.9 323.4 277.3 324.1 277.2 327.7 274.6 329.3 272.8 332 270.5 330.1 268.7 330.3 268.1 327.2 265 327.8 264.2 329.8 266.3 333.4 269 334.8 273.5 338.6 274.4 341.2 268.8 338.7 268 339.8 263.7 334.2 259.1 329.1 254.1 325 249.3 323.1 248.2 321.2 247.7 317.6 244.8 313.1 234.1 305.4 230.1 305.7 226.4 300.2 225.9 298.3 229.8 298.9 232.4 293.8 233.6 293.6 236.4 295.4 238.2 297.9 242.9 298.2 247.6 296.2 250.9 296.7 252.3 298 254.2 296.5 254.3 293.8 255.4 292.4 257.1 295.6 259.2 293.4 259 291.1 260.7 288.8 262.6 290.2 263.1 288.9 265.7 291.8 264.9 292.1 265.7 295.9 268.9 297.5 272 294.9 275.1 297.1 276.7 299.5 279.2 299 280.6 299.9 282.6 298.1 284.1 298.6 283.4 299.1 284.2 303.7 287.4 304.1 295.9 308.3 296.6 308.2"></polygon>
                <polygon id="IT.CH" points="351.2 315.5 349.7 316.2 348.3 312 345.4 309.9 344.8 310.6 341.3 308.2 339 310.1 339 310.1 337.3 309.1 333.8 309.7 332.1 306.8 332.7 306.1 331.8 302.8 332.5 298.8 331.7 297.9 332.8 296.8 332.7 293.5 331.6 291.6 333 289 330.3 284.1 332.2 282.6 334.2 277.1 336.9 277.5 338.1 275.6 344.2 279.7 346.3 282.7 352.5 288.1 358.7 290.2 359.9 291.6 361.2 296.1 362.3 296.4 361.7 300.4 358.7 303.9 357.7 306 352.2 314.8"></polygon>
                <polygon id="IT.VT" points="258 283.4 258.5 287.5 260.7 288.8 259 291.1 259.2 293.4 257.1 295.6 255.4 292.4 254.3 293.8 254.2 296.5 252.3 298 250.9 296.7 247.6 296.2 242.9 298.2 238.2 297.9 236.4 295.4 233.6 293.6 232.4 293.8 229.8 298.9 225.9 298.3 222 291.2 216.5 287.1 212.6 285.7 214.6 282 219.2 281.1 219.4 278.7 217.4 277 218.3 273.9 222 273.1 227.1 268.5 227 265.5 227.8 263.2 225 259.7 227.7 258.7 231.2 256.3 233.3 259.8 235 261.3 233.3 264.8 238.1 268.4 243.5 266.5 247.1 268 247.7 271.7 248.9 272.9 249.4 276.2 254.6 278.9 257.3 281.3 256.4 283"></polygon>
                <path d="M246.7,200.1 L249.3,193.9 L252.3,192.2 L254,192.2 L254.9,190.1 L257.3,191.3 L258,193 L259.7,192 L261.7,195 L263.7,194.8 L265.9,192.4 L266.6,186.9 L268.8,187.2 L275.3,191.1 L285.8,199.4 L281.5,201.1 L280.6,203.7 L278.4,205.5 L277.1,208.6 L268.2,217.8 L265.3,219.6 L261.5,220 L257.2,215.2 L253.6,213.8 L251.5,214.7 L248.7,213.5 L249.9,212.1 L249.9,209 L247.1,210.8 L243.5,209.4 L243,207.3 L246.5,204.9 L247.8,202.8 L248.6,205.2 L249.9,202.8 L246.7,200.1 Z M253.5,210.7 L254.1,210 L253.3,208.2 L252.5,210 L253.5,210.7 Z" id="IT.PU"></path>
                <polygon id="IT.MC" points="307.3 215 312.3 225.8 306 227.7 306.2 230.5 302.8 231.7 302.5 233.2 299.8 234.9 299.2 238.2 300.3 239.6 300.5 242.4 298.8 243.6 296.6 241.6 295.3 242.2 290 248.5 291.3 251.2 290.6 254 287.4 255.6 286.7 254 282.6 250.1 278.9 249.9 276.4 247.6 275.6 245 275.3 240.2 272.6 237.6 273 233.1 274.7 231.7 274.3 229 276.9 228.9 279.8 226.5 281.8 223.4 282.3 219.7 283.3 219 287.7 219.8 289.5 217.3 291.1 217.4 292 219.9 294 220.3 296.4 218.9 302.3 216.9 304.9 218.6 306.1 218.3"></polygon>
                <polygon id="IT.FM" points="312.3 225.8 314.4 231.3 316.8 235.6 317.8 239.2 314.6 238.8 307.8 242 304.7 244.4 300.8 246.1 298.4 246.2 298.1 250.3 293.5 249.2 291.3 251.2 290 248.5 295.3 242.2 296.6 241.6 298.8 243.6 300.5 242.4 300.3 239.6 299.2 238.2 299.8 234.9 302.5 233.2 302.8 231.7 306.2 230.5 306 227.7"></polygon>
                <polygon id="IT.AP" points="317.8 239.2 318.6 242.8 320.7 249 312.3 252 311.1 254.7 305.9 255.9 304.4 255.7 302.8 259.6 300.8 260.6 300.2 262.3 296.2 263.4 292.9 260.1 289.6 260.9 290 259.3 292 258.7 292.2 256.6 290.6 254 291.3 251.2 293.5 249.2 298.1 250.3 298.4 246.2 300.8 246.1 304.7 244.4 307.8 242 314.6 238.8"></polygon>
                <polygon id="IT.SI" points="233.1 254.9 231.2 256.3 227.7 258.7 225 259.7 220 259.7 218.7 250.8 214 249 211.5 250.7 209.1 249.9 207.4 248 207.3 243 204.5 243.3 200.9 242.6 198.3 243.4 194.9 243 193.9 240.9 193.8 237.7 192.9 236.7 187.3 238.7 188 234.4 190.6 233.9 190.8 232.1 189 228.8 190.9 227.4 191.1 225.2 188.7 221.1 189.6 216.9 192.9 215.8 196.2 219.5 198.4 216.9 199.3 218.8 201.6 217.8 202.6 215.9 203.8 216.7 206.6 216.2 208.1 214.8 210.6 216.7 211.7 218.6 214.4 220.4 214.5 224 216 225.8 220.1 228.2 221.6 231 224.3 233.2 227.7 234 230.3 237.6 233.3 236.6 231.9 239.8 232.7 243.3 234.7 244.3 233 251.6 233.9 253.6"></polygon>
                <polygon id="IT.TR" points="231.2 256.3 233.1 254.9 236 254.5 236.7 252.6 239 250.7 249.4 251.7 250.7 255.1 249.3 260.7 252 263 252.1 265.9 254.3 264.1 256.4 265 258.6 262.4 260.6 263.7 262.1 261.7 263.4 262 264.3 265.1 268.1 268.5 268.9 270.1 270.1 267.9 274.5 265.4 276.9 269 276.1 271.8 271.7 274.3 269 276.7 269.3 278.8 266.8 279.6 264.4 278.5 263.7 282.3 260.9 284.3 258 283.4 256.4 283 257.3 281.3 254.6 278.9 249.4 276.2 248.9 272.9 247.7 271.7 247.1 268 243.5 266.5 238.1 268.4 233.3 264.8 235 261.3 233.3 259.8"></polygon>
                <polygon id="IT.TO" points="55.1 91.7 55.2 95.9 61.3 101.1 61.2 103.9 61.1 107 58.1 108.4 59.3 109.3 59.5 112.3 62.5 117.2 66.4 118.1 66 118.6 65.4 120.9 63.1 122.4 61.9 120.5 59.4 120.6 55.3 122.7 55.5 124.5 57.2 125.2 56.7 129 55.5 130.3 55 134.2 57.2 137.5 55.7 138.6 51 137.6 49 139.3 44.8 139.3 42.7 138 37.8 142.2 31.5 142.3 30.6 140.7 23.1 142.8 19.7 144.8 18.1 144.9 16.5 139.9 16.9 138.2 13.8 135.8 10.9 136 7.2 134 5.1 131.5 5 126.3 2.4 125.3 0 120.7 2.8 118.6 5.8 117.6 10.4 119.4 12 117.1 13.4 117.1 15.4 114.7 18.5 113.7 19.3 114.5 21.9 111.9 21.3 108 24.3 102.8 21.6 101.2 20.8 99.3 23.2 96.7 23.8 97.8 26.6 98.4 34 96.1 37.5 93.2 40.9 92.3 46.3 94 49.5 94"></polygon>
                <polygon id="IT.BI" points="61.2 103.9 61.3 101.1 55.2 95.9 55.1 91.7 56.8 89 56.8 84.1 61.4 83.8 63.6 84.7 65.8 82.5 68 83.5 72.2 88.4 72.6 90.2 71.5 91.8 72.5 94.7 71.3 97.9 68.8 101.2 67.3 102 64.8 105.4"></polygon>
                <polygon id="IT.NO" points="80.1 108.7 81.3 107.4 77.4 102.8 76.8 91.8 73.5 86.2 76 86.1 76.6 84.6 75.2 81.7 76.1 80.8 76.5 77.5 78 77.7 79.9 75.9 81.5 78 83.8 77.4 85.7 78.5 84.3 80.2 87.7 86.8 89 87.8 88.6 90.4 89.7 91.8 90.2 94.8 90.7 96.9 93 98.6 95.5 103.8 91.4 105.8 92.3 107.1 90 110.1 88.1 109.3 87 107.1 83.3 106.4 81.9 109.5 81.9 109.5"></polygon>
                <polygon id="IT.VC" points="80.1 108.7 81.9 109.5 81.9 109.5 81.3 111 83.8 116.8 83.7 118.5 81.2 116.5 77.2 116.1 74.2 118.1 71.4 117.6 69.3 118.4 66.4 118.1 62.5 117.2 59.5 112.3 59.3 109.3 58.1 108.4 61.1 107 61.2 103.9 64.8 105.4 67.3 102 68.8 101.2 71.3 97.9 72.5 94.7 71.5 91.8 72.6 90.2 72.2 88.4 68 83.5 65.8 82.5 63.6 84.7 61.4 83.8 56.8 84.1 55.4 82.6 54.6 79.4 54.4 72.6 56.2 72.3 58.6 73.6 62.2 71.9 64.3 72.4 68.4 71 71.9 73.6 74 76.7 73.8 81.9 75.2 81.7 76.6 84.6 76 86.1 73.5 86.2 76.8 91.8 77.4 102.8 81.3 107.4"></polygon>
                <polygon id="IT.AO" points="54.4 72.6 54.6 79.4 55.4 82.6 56.8 84.1 56.8 89 55.1 91.7 49.5 94 46.3 94 40.9 92.3 37.5 93.2 34 96.1 26.6 98.4 23.8 97.8 23.2 96.7 20.8 99.3 16.9 96.5 15.8 92 16.3 88.7 11.2 86 9.3 83.8 8.9 79.1 9.7 77.2 14.1 76.2 16.9 74.8 19.2 71.5 21 73.7 23.3 74.6 25.9 74.4 30.3 72.5 33.5 72.9 39.6 70.1 41.2 68.4 45.4 69.6 47.6 71.9 53.3 72.8 54.1 71.3 54.1 71.3"></polygon>
                <polygon id="IT.VB" points="54.4 72.6 54.1 71.3 54.1 71.3 56.2 68.8 59.9 67.8 61 66 61.4 62.9 65.3 60.1 66.1 56 63.8 52.5 65.2 50.5 68.8 49.2 70.9 46.5 73 45 74.1 41.7 77.6 40.6 79.3 41.6 79.5 44.8 78.6 49.7 78.6 52.7 82.1 55.4 85.9 60.6 89.1 62.2 91.3 61.5 90.9 67.3 85.5 73 85.7 78.5 83.8 77.4 81.5 78 79.9 75.9 78 77.7 76.5 77.5 76.1 80.8 75.2 81.7 73.8 81.9 74 76.7 71.9 73.6 68.4 71 64.3 72.4 62.2 71.9 58.6 73.6 56.2 72.3"></polygon>
                <polygon id="IT.AL" points="83.8 157.7 77.3 157.7 75 159.8 70.9 157.3 72.2 155 75 154 73.4 153.2 74.6 150.7 74.5 147.2 77.2 147 77.8 144.5 81.1 142.5 81.1 140.9 77.8 139.4 77.9 137.9 75.7 136.6 75.3 133.7 76.4 130.6 74.9 128.5 74.3 125.8 72.8 124 70 125 69.4 127.5 65.9 125.3 64.6 122.3 65.4 120.9 66 118.6 66.4 118.1 69.3 118.4 71.4 117.6 74.2 118.1 77.2 116.1 81.2 116.5 83.7 118.5 88.5 127 93 126.8 96.3 125 97.4 125.3 97.6 128.5 100.8 129.6 101.4 131.9 104.8 135.6 104.8 137.7 106.7 139.5 108.7 139.7 111.6 145.4 111.4 147.7 111.5 151.9 109.1 153.8 106.5 151.5 104.5 150.8 100.9 147.7 99.4 147.7 97.4 150.3 98.8 154.3 95.1 155.2 92.8 158.7 90.8 154 86 153.4 85.4 155.7"></polygon>
                <polygon id="IT.MN" points="206.7 130 201.6 129.5 199.6 130.4 195.6 131.4 192.1 129.7 188.5 130.3 183.8 132.8 178.5 131.1 177.2 128.6 174.8 128.6 172.8 131.5 170 133 167.2 132.8 165.6 131.7 168.8 129.9 169.7 127.7 165.2 129 165.7 127.3 168.3 125.5 168 123.1 166.5 124.5 163.3 125.4 163.4 122.7 166.5 121.3 166 119.1 162.3 118.8 159.2 117 159 115.7 160.9 115 163.9 108.9 165.1 108.1 164.7 104.4 165.8 103.1 169.3 104.8 171.6 104.7 173.5 102.4 175.2 102.2 175.9 105.5 175.1 108.4 177.7 109.9 178.9 109 181.6 111.7 187.9 115.7 188.2 117.6 190.6 118.5 191.7 121.4 195 120.1 197.4 120.9 196.8 123.4 200.1 123.5 200.1 125.1"></polygon>
                <polygon id="IT.PC" points="128 121.6 130.1 120.8 130 122.7 131.9 123.8 134.9 123.4 134.9 121.8 138.7 123.9 138.2 122.5 141.2 122.3 140.5 120.2 141.9 121.8 144.9 120.5 146.4 121.6 148.6 125.9 145.6 130.7 145.2 132.7 146 136 141.2 139.8 139.7 142.8 138.4 142.9 135.7 146.1 135.7 147.6 133 148.3 131.9 147.5 123.9 155.6 120.1 152.9 117.9 153.7 115.7 152.3 111.5 151.9 111.4 147.7 113.1 147.7 113.5 145.7 116 146.9 115.9 143.1 118 139 117.8 136.4 115.7 134.8 115.9 133 120.9 122.4 124.6 122.3 125.9 123.2 126.1 120.4 126.1 120.4"></polygon>
                <polygon id="IT.LO" points="128 121.6 126.1 120.4 126.1 120.4 125.4 118.4 121.4 117.1 118.5 114.1 116 113.6 117.1 109.6 118.8 110 118.1 106.7 120.4 103.8 121.3 100.1 122.8 101.2 122.6 105.5 125 107.5 127.6 106.7 128.7 109.8 132.9 112.4 135.7 115.3 137.5 118.3 139.8 118.6 140.5 120.2 141.2 122.3 138.2 122.5 138.7 123.9 134.9 121.8 134.9 123.4 131.9 123.8 130 122.7 130.1 120.8"></polygon>
                <polygon id="IT.PV" points="81.9 109.5 81.9 109.5 83.3 106.4 87 107.1 88.1 109.3 90 110.1 92.3 107.1 91.4 105.8 95.5 103.8 96.9 106.8 102 112.5 103.1 111.6 102.2 109.1 104.5 110.2 110 110.4 112.1 108.7 115.9 108.7 117.1 109.6 116 113.6 118.5 114.1 121.4 117.1 125.4 118.4 126.1 120.4 126.1 120.4 125.9 123.2 124.6 122.3 120.9 122.4 115.9 133 115.7 134.8 117.8 136.4 118 139 115.9 143.1 116 146.9 113.5 145.7 113.1 147.7 111.4 147.7 111.6 145.4 108.7 139.7 106.7 139.5 104.8 137.7 104.8 135.6 101.4 131.9 100.8 129.6 97.6 128.5 97.4 125.3 96.3 125 93 126.8 88.5 127 83.7 118.5 83.8 116.8 81.3 111"></polygon>
                <polygon id="IT.CR" points="122.8 101.2 123.2 100.6 124.4 97.5 126.7 100.7 129.2 100.3 131.4 102 133.1 99.2 137.1 102.6 137.5 100.8 140.7 102.5 141.1 107.1 145.7 110.4 150.1 112.5 154.9 114.1 156.2 112.7 159 115.7 159.2 117 162.3 118.8 166 119.1 166.5 121.3 163.4 122.7 163.3 125.4 166.5 124.5 168 123.1 168.3 125.5 165.7 127.3 165.2 129 169.7 127.7 168.8 129.9 165.6 131.7 167.2 132.8 164.7 131.8 163.4 128.9 160.6 129 155.2 125.8 153.4 125.3 148.6 125.9 146.4 121.6 144.9 120.5 141.9 121.8 140.5 120.2 139.8 118.6 137.5 118.3 135.7 115.3 132.9 112.4 128.7 109.8 127.6 106.7 125 107.5 122.6 105.5"></polygon>
                <polygon id="IT.MI" points="124.4 97.5 123.2 100.6 122.8 101.2 121.3 100.1 120.4 103.8 118.1 106.7 118.8 110 117.1 109.6 115.9 108.7 112.1 108.7 110 110.4 104.5 110.2 102.2 109.1 103.1 111.6 102 112.5 96.9 106.8 95.5 103.8 93 98.6 90.7 96.9 90.2 94.8 91.9 94.4 94 92.1 95.8 94.1 99.6 91.3 101.5 91.3 103 93.6 105.2 93.1 104.9 90.8 107.3 90.9 107.1 92.7 110.1 92.8 115.7 95.9 118.5 94.8 122.3 92.2 123.7 89.4 125.1 91.9 125.4 94.6"></polygon>
                <polygon id="IT.VA" points="104.9 90.8 105.2 93.1 103 93.6 101.5 91.3 99.6 91.3 95.8 94.1 94 92.1 91.9 94.4 90.2 94.8 89.7 91.8 88.6 90.4 89 87.8 87.7 86.8 84.3 80.2 85.7 78.5 85.5 73 90.9 67.3 91.3 61.5 94.6 62.6 95.7 64 92.9 69 97.2 71.2 99 75.1 98.8 78.4 98.6 81.4 100.5 84.1 98.7 87.3 99.8 89.1 101.7 87.7 102.4 89.3 105.2 88.5 105 89.4"></polygon>
                <polygon id="IT.SO" points="120.5 58.3 121.2 55 118.4 55.2 116.5 53.8 112.1 54 114 49.3 113.6 42.8 112.6 41.6 113.7 38.7 116.5 37.7 118.4 39.6 121 38.2 121.6 45.6 122.9 46.4 124.3 49.3 126.2 50.2 131 50.3 132.4 49 132.4 47.2 134.9 47.4 140.3 45.3 143.1 46.2 143.7 49.7 146 52 146.5 54.4 150.8 53 151.3 51.8 148.4 47.8 150.1 44.6 150.1 42.6 146.3 41.6 145.8 35.5 148 31.2 152.4 29.7 154.1 30.2 154.2 32.8 156.7 34.2 162.2 35.1 163.3 34.4 165.1 37.5 167.1 37.8 170.6 39.8 171.3 42.5 170.5 44.6 168.2 45.2 166.7 46.7 163.3 46.4 160 49.8 158 50.8 156.9 54.2 152.2 57.2 151.2 59.5 151.9 64.2 149.4 64.5 148.9 62.2 141.7 64 139.4 65.2 134.3 64.1 129 64.8 127.1 66.6 124.9 67.3 124.1 64.2 121 62.9 120.1 61.7"></polygon>
                <polygon id="IT.CO" points="116.5 53.8 118.4 55.2 121.2 55 120.5 58.3 118.2 58.3 115.5 60 114.1 66.7 114.7 70 113.8 70.4 114.7 74 116.3 74.3 116.6 76.5 113.1 81.7 113.2 83.6 111.3 85.8 110.5 88.3 107.4 86.5 105.2 88.5 102.4 89.3 101.7 87.7 99.8 89.1 98.7 87.3 100.5 84.1 98.6 81.4 98.8 78.4 102.8 78.9 105.2 75.2 104.9 73.1 103.1 72.5 102 69.7 103.3 68.4 102.8 65.7 105.2 64.3 105.7 60.8 109.5 57.6 112.1 54"></polygon>
                <polygon id="IT.LC" points="120.5 58.3 120.1 61.7 121 62.9 124.1 64.2 124.9 67.3 123.4 67.3 123.9 69.8 125.5 71.2 124.4 75.1 122.4 77.1 124.6 81 121.6 83.1 122 86.1 123.2 87.8 121 89.1 120.1 87.8 118.5 88.9 116.1 88.2 115 84.6 113.2 83.6 113.1 81.7 116.6 76.5 116.3 74.3 114.7 74 113.8 70.4 114.7 70 114.1 66.7 115.5 60 118.2 58.3"></polygon>
                <polygon id="IT.BG" points="123.7 89.4 123.2 87.8 122 86.1 121.6 83.1 124.6 81 122.4 77.1 124.4 75.1 125.5 71.2 123.9 69.8 123.4 67.3 124.9 67.3 127.1 66.6 129 64.8 134.3 64.1 139.4 65.2 141.7 64 148.9 62.2 149.4 64.5 151.9 64.2 154.2 64.6 155.8 66.6 153.5 67.4 149.9 70.5 149 73.7 150.6 76 147.6 80.8 148.1 84.9 146.6 86.8 142.1 88 139.1 93.3 140.7 102.5 137.5 100.8 137.1 102.6 133.1 99.2 131.4 102 129.2 100.3 126.7 100.7 124.4 97.5 125.4 94.6 125.1 91.9"></polygon>
                <polygon id="IT.MB" points="123.2 87.8 123.7 89.4 122.3 92.2 118.5 94.8 115.7 95.9 110.1 92.8 107.1 92.7 107.3 90.9 104.9 90.8 105 89.4 105.2 88.5 107.4 86.5 110.5 88.3 111.3 85.8 113.2 83.6 115 84.6 116.1 88.2 118.5 88.9 120.1 87.8 121 89.1"></polygon>
                <polygon id="IT.UD" points="273.1 78.3 271.8 74.4 270.6 73.4 270.6 71.8 268.1 69.3 267.5 66.3 268.5 54.3 268.4 52 269.6 48.4 268.9 44 265.2 43.7 261.9 42.6 259.8 43.7 255.3 44 253.2 42.7 250.9 42.7 249.2 40.3 251.2 37 254.9 36.5 255.7 33.2 259.5 32 258.9 25.5 262.4 27.3 272.2 27.5 275.6 28.1 279.3 29.9 285.2 28.7 289.5 28.6 297.7 30.9 299 30.7 298.7 33.9 297.5 35.4 295.1 35.7 292.3 39.1 288 42 285.7 45.4 287.9 50.3 288.4 49 292.1 49.7 294.2 51.4 297.5 51.4 296.9 54.8 292.4 58.7 290.8 62.4 288.8 67.9 288.7 69.6 290.3 76.2 290.1 79.5 282.8 78 281.4 76.9 278.7 78.3 276.7 77.6 277.3 79.4 275.1 81 276.1 82.4 278.6 81.4 276.4 84.6"></polygon>
                <polygon id="IT.GO" points="296.6 75.4 295.3 75.1 294.2 77.1 295.6 78.4 290.4 82.1 288.2 82.1 290.5 80.6 290.1 79.5 290.3 76.2 288.7 69.6 288.8 67.9 290.8 62.4 292.9 64.6 296.9 63.3 297.7 64.4 295.8 70.7 296.8 74.2"></polygon>
                <polygon id="IT.TS" points="296.6 75.4 296.8 74.2 299.9 74.9 305.1 77.5 308.8 83 310.4 84 308.6 86.9 302.8 86.8 303.5 85.5 305.9 85.5 303.7 83.3 304.3 81.9 299.4 76.7"></polygon>
                <polygon id="IT.RO" points="229.5 117.5 232.3 117.3 232.9 118.6 236.3 121.9 237.7 122.4 239.3 118.9 241 119.2 243.2 117.9 244.8 115.6 245.3 119.5 244.4 120.9 247.1 121.5 252.3 126.7 254.4 127 252.9 132.7 251 136.2 250 134.2 250.5 131.4 249.2 132 248.8 138 246.6 135.2 244.3 133.8 243.2 129.5 241.2 130.2 237.4 129.7 235.2 127.8 231.1 127.1 225.9 127.2 222.8 127.8 220.2 130.3 216.2 132.8 212.4 131.1 206.7 130 200.1 125.1 200.1 123.5 196.8 123.4 197.4 120.9 202.6 121.7 205 123.8 207.4 121.3 206.2 119 209.6 120.1 211.4 119 220.6 120.5 224.3 118"></polygon>
                <polygon id="IT.PD" points="234 89.8 231.8 91.5 229.6 97.7 231.5 98.5 229.5 102.1 232 104.3 232.3 107 234.2 106.2 237.1 108.2 238 110 239.3 109.2 239.5 110.8 237.5 114.1 235.1 113.5 230.5 114.6 229.5 117.5 224.3 118 220.6 120.5 211.4 119 209.6 120.1 206.2 119 205.5 111.7 208.9 110.8 211.3 111.9 213.9 112 213 109.5 214.7 106.5 214.2 103.3 219.2 98 219.3 94.2 217.7 92.8 215.7 94.1 216.1 91.8 215.1 88.2 217.7 85.7 222.3 84.9 224.4 85.8 226 88.5 228.1 89.3 230.4 87.3 232.9 87.3"></polygon>
                <polygon id="IT.VR" points="208.9 110.8 205.5 111.7 206.2 119 207.4 121.3 205 123.8 202.6 121.7 197.4 120.9 195 120.1 191.7 121.4 190.6 118.5 188.2 117.6 187.9 115.7 181.6 111.7 178.9 109 177.7 109.9 175.1 108.4 175.9 105.5 175.2 102.2 173.5 102.4 172.6 100.7 172.9 97.7 172.5 90.9 178.2 81.9 180.7 77.2 183.1 80.1 181.9 83.9 184.6 86.3 187.7 84.3 193 85 194 88.3 197.3 90.3 198.3 94.1 201.4 97.1 201.8 100.4 203.3 105.5 205.9 106.4"></polygon>
                <polygon id="IT.TN" points="193 85 187.7 84.3 184.6 86.3 181.9 83.9 183.1 80.1 180.7 77.2 179.3 76.5 174 76.6 173.1 78.7 168.7 79.5 166.4 74.8 166.8 72.5 165.8 69.3 164.2 68.4 166.5 62.5 168.2 60.2 168.5 55.7 169.4 53.2 168.8 48.5 166.7 46.7 168.2 45.2 170.5 44.6 171.3 42.5 170.6 39.8 172 40.1 175.6 37.9 179.6 41.1 186.2 38 188.5 39.9 188.5 35.7 189.8 35.2 192.3 37.3 194.3 36.2 195.2 38.3 194.9 46.2 193.1 49.6 194.7 53 196.8 52.7 200.3 48.8 202.1 50.3 203.6 46.9 206.4 44.7 209 44.9 211.3 42.9 213.1 37.6 214.8 35.4 218.7 35.1 220.1 33.9 221 35.4 221.1 36.6 223.4 37.5 222 42.6 220.1 43.8 222.2 47.5 222.4 49.3 225.5 50.6 225.3 52.3 227.4 53.8 224.5 57.8 220.5 59.6 216.8 60 215.8 64.3 215.9 67.1 212.3 67.5 211.4 65.9 207.8 65.6 203.6 67.7 202.3 71.2 200.4 70.3 198.9 71.6 195.8 78.2 195.2 81.6"></polygon>
                <polygon id="IT.BL" points="258.9 25.5 259.5 32 255.7 33.2 254.9 36.5 251.2 37 249.2 40.3 246.7 44.8 244 46.5 242.6 48.8 244.7 51.1 247.9 52.4 249.4 55 250 58.1 247.6 60.1 246.9 62.3 242.9 60.1 237.2 65.1 233.8 65.3 231.9 67.7 228.7 67.6 227.6 68.5 226.3 72.7 223.6 73 221.8 72 221 73.2 219.8 70.4 217.8 69.8 215.9 67.1 215.8 64.3 216.8 60 220.5 59.6 224.5 57.8 227.4 53.8 225.3 52.3 225.5 50.6 222.4 49.3 222.2 47.5 220.1 43.8 222 42.6 223.4 37.5 221.1 36.6 221 35.4 221.8 34.8 228.8 33 231.8 25.1 235.1 27 236.7 29.2 242.2 27 243.7 27.6 247.2 24 251.1 25.3 255.6 25"></polygon>
                <polygon id="IT.MO" points="199.6 130.4 198.7 132.9 203.2 135 204.6 136.6 202.7 137.2 201.4 139.1 195.3 139.9 194.4 140.6 192.4 148.7 194.8 151.4 194.3 155.5 192.4 155.9 191.4 159.2 189 161.1 191.3 163.1 190.6 165 191.2 167.3 190.4 169.3 187.8 169.7 187.9 173.9 186.1 175.1 183.3 174.1 181.4 179 181.8 181.3 177 178.4 174.5 178.7 172.8 180.7 171.1 180.7 167.3 177.1 166.7 174.8 168.4 171.6 169.3 167 171.9 166.1 175.2 159.8 177.5 157.8 179.4 154.4 179.6 150.2 181.1 148.2 180.8 144.2 181.9 140.3 180.8 139.3 182 136.2 183.4 135.3 183.8 132.8 188.5 130.3 192.1 129.7 195.6 131.4"></polygon>
                <polygon id="IT.SP" points="123.3 164 124.6 163.1 128.6 163.1 130.9 164.3 132.6 167.2 135.3 170.4 139.7 173.5 140.4 177.6 142.2 177.2 141.9 178.8 145.4 179.7 146 181.8 148.7 183 147.5 185.7 144.7 186 139.5 182.2 138.4 185 136.3 184 132 180.4 129.7 179.9 127.6 177.3 124.9 175.9 127.1 171.8 124.5 169.1 125.2 167.4"></polygon>
                <polygon id="IT.PR" points="132.6 167.2 130.9 164.3 128.6 163.1 124.6 163.1 123.3 164 121.6 163.5 122.2 160.6 124 158 123.9 155.6 131.9 147.5 133 148.3 135.7 147.6 135.7 146.1 138.4 142.9 139.7 142.8 141.2 139.8 146 136 145.2 132.7 145.6 130.7 148.6 125.9 153.4 125.3 155.2 125.8 160.6 129 163.4 128.9 164.7 131.8 167.2 132.8 165.6 134.4 165.7 136.8 164.5 140.4 164.6 145.6 163.9 147.8 163.2 154.1 155.6 164 152.6 166.4 152 168 152 168 149.2 167.4 145.7 164.1 145.6 161.6 143.2 160.3 138.9 160 134.9 165.5"></polygon>
                <polygon id="IT.FG" points="380.1 304.1 386.3 303.9 393.8 304.6 401.2 302.7 408.6 302.6 419.9 300.3 425.1 301.3 427 303.7 428.2 308.9 426.2 311.6 424.6 312.4 421.2 316.2 416.8 319 415.6 323 416.8 327.4 419.8 330.1 418.5 331.7 423 335.1 420.8 336.5 423.1 343.2 420.1 346.7 416.2 349.7 412.3 352 404.3 352.3 402.8 355.7 398 354.6 395.9 353.3 390.2 353.8 386.4 351.2 388 347.9 387.9 344.4 384.4 342.8 382.9 343.8 382 341.9 379.4 340.4 380.5 337 379.9 334.6 375.3 331.8 372.3 329.3 371.9 323.6 372.7 322.7 375.7 323.4 381.4 317.5 379.7 317.2 378.8 310.4 379.8 307.9"></polygon>
                <polygon id="IT.IM" points="64.7 192.4 61.9 195 57.2 197.6 49.5 199.4 45.5 201.2 37.1 201 36.1 196.5 39.6 191.8 42.9 188.9 45.5 183 47.7 182.6 48.6 179.9 50.7 180.8 58.6 181.9 59.2 181.6 60.8 184.7 58.7 187.4 59 188.7 63.1 190.1"></polygon>
                <polygon id="IT.OR" points="81.6 449 79.7 446.5 81.5 443.9 81.5 438.1 77.7 435.9 76.5 438.2 74.7 436.4 74.5 432.1 75.1 429.4 74.1 428.2 77.6 427.3 79 424.4 78 422 77.6 417.7 78.4 414.9 77.8 411.7 74.3 409.4 74.6 405.8 76.4 406.8 79.3 405.2 81 405.8 85.1 411.5 85.4 414.6 87.5 417.3 91.9 418.8 101.1 417.8 102.7 418.7 103.6 423.8 104.7 426.6 103.9 428.5 102 427.6 100.7 430.9 103.2 432 102.1 434.9 102.8 435.8 110 439.1 110.1 441.1 105.6 441.9 102.8 445.3 99.6 444.1 97.7 448.4 95.4 450.9 91.1 453 87.6 452.9 84.4 449.7"></polygon>
                <polygon id="IT.CS" points="457.3 408.3 455.8 410.5 455.7 412.9 457.7 417.6 454 422.8 452 427.9 452.1 429.7 454.2 432.8 453.7 434.8 455.3 436.4 459.2 438.3 465 438.1 468.3 439.6 469.9 441.8 475.2 444.6 478.4 445.5 476.7 447.5 476.3 450.3 473.3 450.7 471.5 454.1 465.6 453.9 464.6 455.4 466.5 457.4 467.9 462.5 467.1 464.1 462.2 463.7 460.8 464.4 459.6 466 455.6 467.2 455.3 472.8 452.9 473.5 450.5 471.2 447.1 470.6 444.7 471.2 440.2 474.1 437.2 475.1 436.4 473.6 432.8 457.5 430.6 452 427.3 447.7 424 444.8 422.2 439.6 420.5 437.1 419.3 431 418.2 429.1 418.6 426.7 416.7 423.5 417.9 420.9 421.5 418 423.7 419.2 425.9 417.9 427.2 419.2 429 418.7 429.1 421 431.8 423.4 437.7 422.4 440.7 420.5 442.6 420.6 445.1 422.6 444.5 420.8 446 416.9 446.4 413.1 446.9 408.6"></polygon>
                <polygon id="IT.VV" points="431.1 508.7 430.1 504.4 426.8 501.6 427.1 499.6 434.3 495.1 439.9 494.9 442.5 493.1 443.9 489.2 446.1 489.7 447.6 488.2 451.6 491.2 450.6 493.5 450.2 497.8 453.2 501.3 455.5 502.8 454.9 503.9 453.2 503.2 451.8 506.6 453.7 509 452.9 511.5 448.6 511.3 446.3 508.1 444 507.9 438.9 505.1 436.5 506.9"></polygon>
                <polygon id="IT.SA" points="411.5 416.4 409.7 414.9 406.2 414.9 400.7 420.4 397.6 420 394.4 417.6 392.1 414.6 386.8 410.7 382.5 410.7 380.9 408.7 376.5 407 377.1 401.4 379.9 399.7 379.9 397.3 374.1 387.1 370.2 382.5 367.4 381.2 364.1 383.3 361.1 383.5 358.1 385.7 354.7 385.2 355.1 383.9 357.9 383.7 359.6 381.1 358.6 378.7 356.4 378.3 356.6 375.8 359 374.6 358.3 372.4 360 371.3 362.2 372.5 364.4 371 367.4 373.4 372.3 373.5 374.1 372.9 377.7 374.2 384.5 375.1 386.6 377.8 389.6 376.9 390 372.9 391.9 369.9 394.1 370.6 396 376 398.9 378.9 401.4 379.8 399.7 383.3 403.2 385.5 404.3 389.7 407.2 393.2 412.8 396.4 413.5 399.7 416.9 402.5 416.7 405.5 413.2 409.3 413.3 411.2 411.5 414.3"></polygon>
                <polygon id="IT.BT" points="419.8 330.1 422.2 331.5 435.5 336.5 443 339.8 447 341.2 445.5 346.4 441.2 344.2 437.9 346.9 437.6 349.9 435.4 354.4 435.1 358.2 432.8 362.1 431.3 361.5 429.2 362.8 423 360.6 424.7 356.3 420.8 352.5 418.3 351.7 416.2 349.7 420.1 346.7 423.1 343.2 420.8 336.5 423 335.1 418.5 331.7"></polygon>
                <polygon id="IT.SR" points="396.6 580.9 397.6 583 402.9 584.9 404.7 586.5 401.6 589.7 405 594.9 407.8 595.8 407.9 598.1 409.6 601.1 406.5 602 406.6 603.6 402.2 605.7 398.8 614.7 401.3 621.3 400.4 623.1 398.4 623.2 394.6 620.9 394.2 617 392.8 615.3 387.5 613.9 386.8 611.7 390.1 612.1 390.5 610.2 387 608.3 386.2 604.9 389.2 607.3 390 606.8 388.8 603.7 385.3 600.8 383 595.5 385.2 595.5 386.3 592.7 385.7 591.1 382.3 590.9 381.8 589.8 385.6 586.9 385.9 584.2 382 583.3 384.8 580 387.1 578.3 391.2 580.3 393.6 579.9"></polygon>
                <polygon id="IT.EN" points="361 586.2 359.4 586.4 356.8 584.4 352.1 585.6 348.2 584.5 347.3 579.5 350.3 576.1 349.5 573.3 350.5 568.4 349.5 568 351.2 564.6 355.4 562.5 356.6 559.1 355 557.3 355.7 554.1 361.8 552.5 363.7 553.5 364.6 555.8 366.2 553.4 369.4 551.2 369.4 553.7 371.3 555.1 374.6 555.5 378 554.1 376.8 556.8 377.7 558.4 377.1 561.5 378.6 562.1 381 560.3 380.9 563.6 383.3 567.3 381.8 568.6 380.6 573.1 376.4 570.2 373.4 571.3 369.4 571.4 368 573.9 368.7 576.8 371.4 576.8 374 578.5 371.8 579.9 372.1 581.6 368.4 583.3 369 585 365 584 366 586.1 363.6 586.8"></polygon>
                <polygon id="IT.CN" points="45.5 183 43.5 179.8 44.2 177.9 32.2 180.9 26.6 178.5 22 175.6 17.2 173.3 15.6 173.5 12.4 169.6 10.1 165.3 10.7 162.7 12.5 161.5 9.1 157.3 9.5 154.7 11.8 153 14 150.1 13.8 147.5 15.7 146.1 18.8 146.6 18.1 144.9 19.7 144.8 23.1 142.8 30.6 140.7 31.5 142.3 37.8 142.2 42.7 138 44.8 139.3 49 139.3 51 137.6 55.7 138.6 57.2 137.5 58.5 137.3 60.7 140 65.2 139.7 63.6 143.1 66.2 145.7 67.8 143.5 71 146.3 68 150.6 69.9 153.9 70.2 156.5 67.8 160.4 68.3 163.3 66.7 164.4 65.2 167.6 62.4 169.9 62.5 177.5 60.9 179.2 58.3 180.1 59.2 181.6 58.6 181.9 50.7 180.8 48.6 179.9 47.7 182.6"></polygon>
                <polygon id="IT.BZ" points="163.3 34.4 163.5 29.7 160.8 28.9 159.7 26.9 160.9 23 162.1 21.8 161.6 19.2 163 15.2 166.1 16.4 171.7 15.2 175.3 17.6 174 19.1 180.9 20.8 185.7 20.4 188 17.3 189.4 11.7 192 8.9 198.5 6.9 202.5 7.8 204.2 5.9 206.8 6.5 210.2 5.7 213.8 6.1 216.4 7.2 224.4 2.9 227.4 2.7 231.5 0.3 235.1 0 234.3 2.8 231.5 5.4 232.9 9.8 235.2 12.1 238.2 12.7 238.5 17.5 241.6 18.8 242.9 22 247.2 24 243.7 27.6 242.2 27 236.7 29.2 235.1 27 231.8 25.1 228.8 33 221.8 34.8 221 35.4 220.1 33.9 218.7 35.1 214.8 35.4 213.1 37.6 211.3 42.9 209 44.9 206.4 44.7 203.6 46.9 202.1 50.3 200.3 48.8 196.8 52.7 194.7 53 193.1 49.6 194.9 46.2 195.2 38.3 194.3 36.2 192.3 37.3 189.8 35.2 188.5 35.7 188.5 39.9 186.2 38 179.6 41.1 175.6 37.9 172 40.1 170.6 39.8 167.1 37.8 165.1 37.5"></polygon>
                <polygon id="IT.PO" points="188.7 199.3 190.9 197.9 191.1 192.7 192.8 189.4 190.7 188.2 192.1 183.8 192 182.3 198.4 181.4 198.6 181.4 198.3 185.8 196.3 196.6 192.9 199.3 192.8 202.4 189.3 200.9"></polygon>
                <polygon id="IT.KR" points="460.8 464.4 462.2 463.7 467.1 464.1 467.9 462.5 466.5 457.4 464.6 455.4 465.6 453.9 471.5 454.1 473.3 450.7 476.3 450.3 476.7 447.5 478.4 445.5 480.4 447.6 485.4 449.3 484 453.6 484.3 458.6 485.8 461.2 485.2 466.7 487.4 471.5 489.7 471.9 488.2 473.5 488.5 476.2 485.6 480.2 483.8 479 481.6 480.2 479.5 478.5 475.4 479.3 475.6 477.4 474.1 474.2 471 472 467.2 471.9 464.4 470.2 463.3 466.9"></polygon>
                <polygon id="IT.CB" points="375.3 331.8 372.7 333.6 367.8 335.7 365.4 334.8 363.6 337.2 360.6 337.5 357.8 339.5 353.7 338.8 351.2 336.9 347.5 336 347.8 332.5 350.7 330.6 352.3 325.9 348.6 323.7 348.7 322.7 352.3 320.6 352.5 318.4 350.9 317.4 351.2 315.5 352.2 314.8 357.7 306 358.7 303.9 361.7 300.4 362.3 296.4 367.3 298.9 372.9 299.8 374.9 301.8 380.1 304.1 379.8 307.9 378.8 310.4 379.7 317.2 381.4 317.5 375.7 323.4 372.7 322.7 371.9 323.6 372.3 329.3"></polygon>
                <polygon id="IT.AT" points="57.2 137.5 55 134.2 55.5 130.3 56.7 129 57.2 125.2 55.5 124.5 55.3 122.7 59.4 120.6 61.9 120.5 63.1 122.4 65.4 120.9 64.6 122.3 65.9 125.3 69.4 127.5 70 125 72.8 124 74.3 125.8 74.9 128.5 76.4 130.6 75.3 133.7 75.7 136.6 77.9 137.9 77.8 139.4 81.1 140.9 81.1 142.5 77.8 144.5 77.2 147 74.5 147.2 74.6 150.7 73.4 153.2 75 154 72.2 155 70.9 157.3 70.7 157 70.2 156.5 69.9 153.9 68 150.6 71 146.3 67.8 143.5 66.2 145.7 63.6 143.1 65.2 139.7 60.7 140 58.5 137.3"></polygon>
                <polygon id="IT.BS" points="140.7 102.5 139.1 93.3 142.1 88 146.6 86.8 148.1 84.9 147.6 80.8 150.6 76 149 73.7 149.9 70.5 153.5 67.4 155.8 66.6 154.2 64.6 151.9 64.2 151.2 59.5 152.2 57.2 156.9 54.2 158 50.8 160 49.8 163.3 46.4 166.7 46.7 168.8 48.5 169.4 53.2 168.5 55.7 168.2 60.2 166.5 62.5 164.2 68.4 165.8 69.3 166.8 72.5 166.4 74.8 168.7 79.5 173.1 78.7 174 76.6 179.3 76.5 180.7 77.2 178.2 81.9 172.5 90.9 172.9 97.7 172.6 100.7 173.5 102.4 171.6 104.7 169.3 104.8 165.8 103.1 164.7 104.4 165.1 108.1 163.9 108.9 160.9 115 159 115.7 156.2 112.7 154.9 114.1 150.1 112.5 145.7 110.4 141.1 107.1"></polygon>
                <polygon id="IT.PN" points="249.2 40.3 250.9 42.7 253.2 42.7 255.3 44 259.8 43.7 261.9 42.6 265.2 43.7 268.9 44 269.6 48.4 268.4 52 268.5 54.3 267.5 66.3 268.1 69.3 270.6 71.8 270.6 73.4 269.8 74.7 267.4 74.5 266.3 73.3 264.5 74.8 263 72.9 259.2 76.3 258.1 76.4 256.3 74.6 253.5 74.4 251.4 69.3 248 66.9 246.9 62.3 247.6 60.1 250 58.1 249.4 55 247.9 52.4 244.7 51.1 242.6 48.8 244 46.5 246.7 44.8"></polygon>
                <polygon id="IT.VI" points="222.3 84.9 217.7 85.7 215.1 88.2 216.1 91.8 215.7 94.1 217.7 92.8 219.3 94.2 219.2 98 214.2 103.3 214.7 106.5 213 109.5 213.9 112 211.3 111.9 208.9 110.8 205.9 106.4 203.3 105.5 201.8 100.4 201.4 97.1 198.3 94.1 197.3 90.3 194 88.3 193 85 195.2 81.6 195.8 78.2 198.9 71.6 200.4 70.3 202.3 71.2 203.6 67.7 207.8 65.6 211.4 65.9 212.3 67.5 215.9 67.1 217.8 69.8 219.8 70.4 221 73.2 218.6 75.6 219 77.4 221.3 78.3 222.5 80.4"></polygon>
                <polygon id="IT.TV" points="246.9 62.3 248 66.9 251.4 69.3 253.5 74.4 256.3 74.6 258.1 76.4 257.9 82.5 255.5 83.6 252 83.8 250 86.5 248.4 87.2 248.6 89.9 246.9 90.9 245.1 90.2 240 93.3 238.1 90.5 234 89.8 232.9 87.3 230.4 87.3 228.1 89.3 226 88.5 224.4 85.8 222.3 84.9 222.5 80.4 221.3 78.3 219 77.4 218.6 75.6 221 73.2 221.8 72 223.6 73 226.3 72.7 227.6 68.5 228.7 67.6 231.9 67.7 233.8 65.3 237.2 65.1 242.9 60.1"></polygon>
            </g>
        </g>
    </g>
</svg>