<?xml version="1.0" encoding="UTF-8" standalone="no"?>
<svg width="546px" height="702px" viewBox="0 0 546 702" version="1.1" xmlns="http://www.w3.org/2000/svg" xmlns:xlink="http://www.w3.org/1999/xlink">
    <!-- Generator: Sketch 42 (36781) - http://www.bohemiancoding.com/sketch -->
    <title>admin1</title>
    <desc>Created with Sketch.</desc>
    <defs></defs>
    <g id="Page-1" stroke="none" stroke-width="1" fill="none" fill-rule="evenodd">
        <g id="it-all" transform="translate(1.000000, 1.000000)" fill-rule="nonzero" stroke="#6E6E6E" stroke-width="0.4" fill="#CEE3F5">
            <g id="admin1">
                <path d="M74.6,405.8 L73.4,400.9 L71.9,399.8 L71,395.7 L68.9,394.8 L66.6,396.1 L66.6,393.6 L64.8,394 L64,396.5 L63.1,392.8 L64.6,391.8 L65.8,388.9 L62.9,386.5 L66.4,378.3 L66.4,375.4 L65,374.5 L66.1,371.7 L67.7,372.9 L67.5,375.6 L71,379.3 L80.7,380.8 L84.3,379.2 L86.2,376.6 L89.3,375.1 L91.9,375.6 L94,373.9 L97.2,368.9 L98.7,368.4 L102.9,363 L106.9,362.2 L110.1,359.2 L110.5,355.7 L113.2,354.5 L114.9,356 L115.7,358.6 L117.9,359 L118,357.5 L122.9,362.3 L122.9,364.7 L124.1,361.5 L128.6,363.1 L127.3,364.7 L126.1,369.3 L128,368.2 L128.9,369.7 L130.9,369.1 L132.5,370.8 L129.6,370.5 L128.2,374.4 L126.1,374.3 L129,375.9 L132.1,375 L130.8,376.7 L135.9,379.6 L132.9,382.3 L135,384.8 L137.1,390.7 L137.4,394.1 L140.8,399.2 L140,402.2 L137.3,407.8 L135.6,408.5 L131.7,414.8 L131.7,417.1 L133,421.9 L136.7,425.6 L134.9,431.1 L135.1,439.2 L134.2,441.6 L134.2,447.7 L133,452.5 L132.9,457.9 L132.1,460.8 L132.9,461.9 L131.5,467 L131,471.4 L132.5,472.8 L130,475 L129.3,478.7 L130,479.8 L128.9,482.7 L127.3,483.6 L123.5,483.6 L118.9,479.3 L116.4,477.8 L112,477.8 L110.5,479.9 L109.1,479.5 L104.5,475.4 L103.7,476.7 L106.4,478.4 L103.5,482.4 L103.6,484.9 L104.8,488.1 L103.4,491.8 L95.8,498.6 L93.5,496.9 L89.3,495.3 L85.8,497.8 L83.8,497.3 L84.3,493.9 L82.9,493.6 L81.9,487.7 L79.3,487.3 L77.9,484.7 L76.4,484 L76.1,481.1 L74.7,480.6 L73.2,477.2 L75.8,474 L75.3,470.6 L73.3,468.2 L74.6,466.2 L74.5,464.1 L74,462.7 L77.6,456.3 L77,451.3 L76.8,445.1 L80.1,448.7 L81.6,449 L79.7,446.5 L81.5,443.9 L81.5,438.1 L77.7,435.9 L76.5,438.2 L74.7,436.4 L74.5,432.1 L75.1,429.4 L74.1,428.2 L77.6,427.3 L79,424.4 L78,422 L77.6,417.7 L78.4,414.9 L77.8,411.7 L74.3,409.4 L74.6,405.8 Z M72.2,363.9 L72.1,366.3 L68.4,367.6 L68.2,370.6 L66.5,370.4 L67.4,367.7 L69.6,366 L69.7,363.8 L71.9,362.6 L72.2,363.9 Z M122.5,357.2 L119.9,357.4 L119.7,356.4 L121.9,354.5 L122.5,357.2 Z M124.2,358.8 L122.6,359.1 L123.7,355.7 L124.6,357.2 L124.2,358.8 Z M70,484.8 L67.6,484.6 L66.2,481.6 L67.2,480.1 L70,479.4 L70,484.8 Z M72.6,484 L76.5,484.9 L77.4,487.7 L76.1,493.1 L74.8,493.4 L72,487.3 L72.6,484 Z" id="SARDEGNA"></path>
                <path d="M346.5,598.6 L341.7,600 L339.5,599.8 L336.4,597.6 L332.5,596.7 L329.1,595 L323.3,590.2 L317.6,588.9 L308.9,583.6 L307.6,581.3 L303.6,578.2 L297.7,577.6 L296.5,578.1 L293.8,574.3 L289.9,573.5 L284.5,573.7 L278.7,574.5 L275.4,570.2 L271.9,569.1 L270.2,567.7 L267,560.1 L268.5,559.5 L269.3,555.7 L268.5,553.8 L270.2,547.8 L273.5,544 L275,544.5 L277.5,541.2 L280.5,540.5 L280.1,537.5 L282,537.1 L285,543.2 L289.1,546 L292.7,544.9 L297.1,541.6 L296.2,538.8 L298.2,535.8 L303.4,536.4 L308.5,533.5 L311.2,536.3 L312.3,540.4 L318.2,539.7 L319.9,542.9 L327.7,547.1 L331.8,547.3 L336.9,545.2 L338.7,543.6 L342.6,542.2 L346.8,543.6 L350.3,543.2 L354.8,543.6 L360.1,542.4 L362.3,541 L366.1,541.1 L371.8,538.5 L376.3,533.6 L379.3,533.3 L384.4,531.3 L387.2,532.6 L391.4,533 L393.3,534.3 L397.5,532.3 L400.2,527 L400.5,528.4 L402.7,528.9 L407.8,527 L412.9,522.7 L415.1,522.4 L419.6,523.6 L416.5,525.9 L416.3,528.4 L413.2,535.6 L408.5,542.5 L402.8,553.2 L400.5,557 L401.2,558.7 L399.2,568 L396.2,572.6 L396.6,580.9 L397.6,583 L402.9,584.9 L404.7,586.5 L401.6,589.7 L405,594.9 L407.8,595.8 L407.9,598.1 L409.6,601.1 L406.5,602 L406.6,603.6 L402.2,605.7 L398.8,614.7 L401.3,621.3 L400.4,623.1 L398.4,623.2 L394.6,620.9 L393.8,621.7 L388.8,619.5 L384,621.7 L379.2,620.4 L377.8,618.8 L369.3,616.9 L364.3,607.9 L361.2,604.7 L358.4,602.3 L350.7,598.5 L346.5,598.6 L346.5,598.6 Z M247.4,620.2 L248.3,619.7 L250.9,622.3 L250,625.3 L248.3,625.2 L245.4,622.6 L244.6,620.2 L247.4,620.2 Z M388.1,519.9 L385.6,518.5 L386,516.3 L387.7,518 L388.1,519.9 Z M261.6,552.4 L263.9,553.2 L262.7,554 L259.3,552.5 L261.6,552.4 Z M386.2,515 L382.9,513.5 L383.3,511.5 L385.6,510.9 L386.7,513.3 L386.2,515 Z M281.5,699.8 L281.1,700 L276.8,698.5 L281.6,698.6 L281.5,699.8 Z M381,509.6 L377.6,508.4 L380.3,507.4 L381.5,508.3 L381,509.6 Z" id="SICILIA"></path>
                <polygon id="CALABRIA" points="478.4 445.5 480.4 447.6 485.4 449.3 484 453.6 484.3 458.6 485.8 461.2 485.2 466.7 487.4 471.5 489.7 471.9 488.2 473.5 488.5 476.2 485.6 480.2 483.8 479 481.6 480.2 479.5 478.5 475.4 479.3 475.4 479.3 467.9 483 462.6 487.3 461.1 489.3 459.7 493.2 462.5 504.8 462.6 508.6 462.3 511.7 458.2 516.1 452.3 519.5 450.8 521.1 444.9 529.7 443.5 538.3 442 541.7 437.9 543.9 435 543.3 426.4 544.4 421.6 542.2 420 539.7 421 537.6 419.1 534.8 420 531.6 419 527 419.7 525.7 426 522.9 430.8 510.7 431.1 508.7 431.1 508.7 430.1 504.4 426.8 501.6 427.1 499.6 434.3 495.1 439.9 494.9 442.5 493.1 443.9 489.2 443.7 483.8 442.8 481.7 440.4 480.6 437.2 475.1 436.4 473.6 432.8 457.5 430.6 452 427.3 447.7 424 444.8 422.2 439.6 420.5 437.1 419.3 431 418.2 429.1 418.6 426.7 416.7 423.5 417.9 420.9 421.5 418 423.7 419.2 425.9 417.9 427.2 419.2 429 418.7 429.1 421 431.8 423.4 437.7 422.4 440.7 420.5 442.6 420.6 445.1 422.6 444.5 420.8 446 416.9 446.4 413.1 446.9 408.6 457.3 408.3 455.8 410.5 455.7 412.9 457.7 417.6 454 422.8 452 427.9 452.1 429.7 454.2 432.8 453.7 434.8 455.3 436.4 459.2 438.3 465 438.1 468.3 439.6 469.9 441.8 475.2 444.6 478.4 445.5"></polygon>
                <polygon id="BASILICATA" points="446.9 408.6 457.3 408.3 461.3 402.4 463 396.7 466.2 390.9 462.2 386.3 460.1 386.8 458.3 381.9 458.1 375 456.9 373.3 457.6 371.9 453.1 369.7 447.4 370.2 444.8 373.4 443 373.3 440.2 371.2 435.4 366.4 433.7 363.2 432.8 362.1 431.3 361.5 429.2 362.8 423 360.6 424.7 356.3 420.8 352.5 418.3 351.7 416.2 349.7 412.3 352 404.3 352.3 402.8 355.7 403.9 358.3 402.7 362.5 399.5 365.3 394.9 365.8 394.9 369.2 394.1 370.6 396 376 398.9 378.9 401.4 379.8 399.7 383.3 403.2 385.5 404.3 389.7 407.2 393.2 412.8 396.4 413.5 399.7 416.9 402.5 416.7 405.5 413.2 409.3 413.3 411.2 411.5 414.3 411.5 416.4 415.7 421.1 416.7 423.5 417.9 420.9 421.5 418 423.7 419.2 425.9 417.9 427.2 419.2 429 418.7 429.1 421 431.8 423.4 437.7 422.4 440.7 420.5 442.6 420.6 445.1 422.6 444.5 420.8 446 416.9 446.4 413.1"></polygon>
                <polygon id="PUGLIA" points="433.7 363.2 435.4 366.4 440.2 371.2 443 373.3 444.8 373.4 447.4 370.2 453.1 369.7 457.6 371.9 456.9 373.3 458.1 375 458.3 381.9 460.1 386.8 462.2 386.3 466.2 390.9 468.2 387.5 470.9 384.3 474.1 382.4 479.6 382.5 480.4 383.9 483.4 382.5 486.9 382.5 485.8 384.1 482.6 384.4 483.5 386.3 482.3 388.5 496.7 393.4 508.5 392.9 512.4 392.7 515.6 394.5 516.7 399.2 520.4 402.3 520.9 405 519.4 406.3 522.1 408.1 521 409.4 525.1 414.6 532.1 418.3 535.4 418.3 539.7 420.1 540.7 415 540.1 412.7 541.3 406.1 543.4 403.9 544.6 400.1 539.9 391.2 536.3 387.3 529.4 380.7 522.6 377.7 519.5 375.7 519.5 372.9 517.5 370.1 515.2 370.6 515 369.2 509.7 368.3 505 365.5 499.6 363.7 495.5 363.1 492 361.7 487.8 358.3 485.6 357.3 481.9 353.5 478.4 351.4 471.3 348.3 463.2 346.5 460.6 345.4 449.4 342.7 447 341.2 443 339.8 435.5 336.5 422.2 331.5 419.8 330.1 416.8 327.4 415.6 323 416.8 319 421.2 316.2 424.6 312.4 426.2 311.6 428.2 308.9 427 303.7 425.1 301.3 419.9 300.3 408.6 302.6 401.2 302.7 393.8 304.6 386.3 303.9 380.1 304.1 379.8 307.9 378.8 310.4 379.7 317.2 381.4 317.5 375.7 323.4 372.7 322.7 371.9 323.6 372.3 329.3 375.3 331.8 379.9 334.6 380.5 337 379.4 340.4 382 341.9 382.9 343.8 384.4 342.8 387.9 344.4 388 347.9 386.4 351.2 390.2 353.8 395.9 353.3 398 354.6 402.8 355.7 404.3 352.3 412.3 352 416.2 349.7 418.3 351.7 420.8 352.5 424.7 356.3 423 360.6 429.2 362.8 431.3 361.5 432.8 362.1"></polygon>
                <path d="M330.8,381.3 L327.7,382.6 L325.7,381.4 L326.2,378.5 L331,379.9 L330.8,381.3 Z M396,376 L398.9,378.9 L401.4,379.8 L399.7,383.3 L403.2,385.5 L404.3,389.7 L407.2,393.2 L412.8,396.4 L413.5,399.7 L416.9,402.5 L416.7,405.5 L413.2,409.3 L413.3,411.2 L411.5,414.3 L411.5,416.4 L409.7,414.9 L406.2,414.9 L400.7,420.4 L397.6,420 L394.4,417.6 L392.1,414.6 L386.8,410.7 L382.5,410.7 L380.9,408.7 L376.5,407 L377.1,401.4 L379.9,399.7 L379.9,397.3 L374.1,387.1 L370.2,382.5 L367.4,381.2 L364.1,383.3 L361.1,383.5 L358.1,385.7 L354.7,385.2 L348.3,388 L348.5,385.6 L350.4,384.9 L353.2,381.6 L354.6,380.9 L354.4,378.8 L349.3,376.1 L345.7,372.7 L342.5,373.4 L341.7,375.3 L336.7,373.6 L336.2,376.7 L334.3,376 L334.1,371.3 L332.3,367.6 L330.1,364.1 L327.8,362.6 L327.4,360.1 L324.4,355.3 L319.1,350.1 L321.9,349 L324.5,345.7 L324.7,343.8 L323.8,338.8 L328.3,335.4 L332.1,339.8 L335.3,339.8 L333.9,336.1 L335.4,333.5 L340.1,333.3 L347.5,336 L351.2,336.9 L353.7,338.8 L357.8,339.5 L360.6,337.5 L363.6,337.2 L365.4,334.8 L367.8,335.7 L372.7,333.6 L375.3,331.8 L379.9,334.6 L380.5,337 L379.4,340.4 L382,341.9 L382.9,343.8 L384.4,342.8 L387.9,344.4 L388,347.9 L386.4,351.2 L390.2,353.8 L395.9,353.3 L398,354.6 L402.8,355.7 L403.9,358.3 L402.7,362.5 L399.5,365.3 L394.9,365.8 L394.9,369.2 L394.1,370.6 L396,376 Z" id="CAMPANIA"></path>
                <polygon id="MOLISE" points="351.2 315.5 349.7 316.2 348.3 312 345.4 309.9 344.8 310.6 341.3 308.2 339 310.1 335.3 314.1 337.4 316.7 333.6 319.7 332 319.6 329 322.3 326.8 322.3 329.1 325.8 330.3 331.8 328.3 335.4 332.1 339.8 335.3 339.8 333.9 336.1 335.4 333.5 340.1 333.3 347.5 336 351.2 336.9 353.7 338.8 357.8 339.5 360.6 337.5 363.6 337.2 365.4 334.8 367.8 335.7 372.7 333.6 375.3 331.8 372.3 329.3 371.9 323.6 372.7 322.7 375.7 323.4 381.4 317.5 379.7 317.2 378.8 310.4 379.8 307.9 380.1 304.1 374.9 301.8 372.9 299.8 367.3 298.9 362.3 296.4 361.7 300.4 358.7 303.9 357.7 306 352.2 314.8 351.2 315.5"></polygon>
                <path d="M159.5,214 L158,200.1 L157.9,199.7 L155.6,193.4 L152.6,190.2 L150.9,187.7 L147.5,185.7 L148.7,183 L146,181.8 L145.4,179.7 L141.9,178.8 L142.2,177.2 L140.4,177.6 L139.7,173.5 L135.3,170.4 L132.6,167.2 L134.9,165.5 L138.9,160 L143.2,160.3 L145.6,161.6 L145.7,164.1 L149.2,167.4 L152,168 L154.8,169.4 L157.2,172.2 L161.4,171.9 L163.6,174.2 L166.7,174.8 L167.3,177.1 L171.1,180.7 L172.8,180.7 L174.5,178.7 L177,178.4 L181.8,181.3 L186.5,183.9 L189.2,180.3 L192,182.3 L198.6,181.4 L200.9,180.4 L198.8,179.5 L198.6,178.1 L202.4,177.3 L206.7,173.4 L208.4,173.7 L211.3,177.3 L212.7,177.5 L214.6,176.7 L216.4,178 L215.4,179.4 L217.4,180 L221.2,179.1 L222.4,179.6 L221.3,182.8 L218.4,187.7 L219.9,189.2 L221.5,194.3 L220.55,194.5 L221.5,194.3 L225.7,197.4 L230.5,198.6 L232.8,200.4 L237.1,201.4 L238.6,201 L241.9,201.8 L246.7,200.1 L249.9,202.8 L248.6,205.2 L247.8,202.8 L246.5,204.9 L243,207.3 L243.5,209.4 L240.7,214.7 L239,216 L240.4,218.2 L236.5,221.8 L238.2,222.1 L238.6,224.5 L240.9,225.3 L241.3,228.7 L243.7,227.5 L244.6,229.1 L239.4,232.1 L236.3,232.4 L235.9,234.9 L233.3,236.6 L231.9,239.8 L232.7,243.3 L234.7,244.3 L233,251.6 L233.9,253.6 L233.1,254.9 L231.2,256.3 L227.7,258.7 L225,259.7 L227.8,263.2 L227,265.5 L227.1,268.5 L222,273.1 L218.3,273.9 L217.4,277 L219.4,278.7 L219.2,281.1 L214.6,282 L212.6,285.7 L208.2,283.8 L201.7,283.3 L200.6,286.5 L196.5,284.4 L197.3,281.8 L199.6,282.1 L200.6,279.6 L200.5,277.2 L199.1,274.6 L197.8,275 L195.4,270.6 L192.2,268.5 L191.4,265.9 L186.9,262.8 L179.8,260.5 L181.2,258.6 L181.7,255 L178.4,252.3 L175.2,251.3 L171,251.9 L170.2,253.4 L168.3,249.5 L170,247.4 L170.9,244 L171.2,239.9 L169.7,232.7 L166.1,225.4 L162.5,220.8 L160.7,219.2 L159.5,214 Z M189.7,288.9 L189,289.7 L186.2,286.9 L187.1,285.3 L189.7,288.9 Z M154.2,260.2 L159,260.9 L159.3,259.5 L163,260.6 L164.9,256.9 L166.9,258.3 L166.4,260 L165.9,262.4 L164.6,263.2 L166.5,265.7 L164.3,265.7 L161.7,263.2 L157.5,265.1 L153.8,265 L152,263.8 L152.2,261.1 L154.2,260.2 Z M139.2,248.8 L137.5,247.6 L139.3,244.8 L140.6,246.6 L139.2,248.8 Z" id="TOSCANA"></path>
                <polygon id="LAZIO" points="268.8 338.7 268 339.8 263.7 334.2 259.1 329.1 254.1 325 249.3 323.1 248.2 321.2 247.7 317.6 244.8 313.1 234.1 305.4 230.1 305.7 226.4 300.2 225.9 298.3 222 291.2 216.5 287.1 212.6 285.7 214.6 282 219.2 281.1 219.4 278.7 217.4 277 218.3 273.9 222 273.1 227.1 268.5 227 265.5 227.8 263.2 225 259.7 227.7 258.7 231.2 256.3 233.3 259.8 235 261.3 233.3 264.8 238.1 268.4 243.5 266.5 247.1 268 247.7 271.7 248.9 272.9 249.4 276.2 254.6 278.9 257.3 281.3 256.4 283 258 283.4 260.9 284.3 263.7 282.3 264.4 278.5 266.8 279.6 269.3 278.8 269 276.7 271.7 274.3 276.1 271.8 276.9 269 280.8 269 282 267.5 283.9 267.9 288.1 266.4 289.5 263.3 289.6 260.9 292.9 260.1 296.2 263.4 298.5 265.9 298.1 268.4 296.5 270.2 289.7 269.8 287.6 272.9 289.1 276.3 287.8 279.6 289.9 281.1 289.4 284.9 291.1 285.7 292.3 288.4 296.8 293.1 298.8 293.4 296.3 294.9 296.3 296.7 293.2 297.4 287 295 284.1 298.6 283.4 299.1 284.2 303.7 287.4 304.1 295.9 308.3 296.6 308.2 300.1 310.7 299.7 315.1 301.9 315 306.3 316.9 307.7 318.4 309.9 318.3 312.8 315.7 316 316.5 317.4 318.8 319.7 318.8 324.2 320.3 326.8 322.3 329.1 325.8 330.3 331.8 328.3 335.4 323.8 338.8 324.7 343.8 324.5 345.7 321.9 349 319.1 350.1 317.5 349 312.3 349.5 310.9 350.5 311.6 352.3 299.8 347.6 294.4 348.6 290.4 350.7 289.4 352.3 287.3 352.3 284 346.2 279.9 342.2 277.5 341.2 274.4 341.2"></polygon>
                <path d="M253.5,210.7 L252.5,210 L253.3,208.2 L254.1,210 L253.5,210.7 Z M276.1,271.8 L271.7,274.3 L269,276.7 L269.3,278.8 L266.8,279.6 L264.4,278.5 L263.7,282.3 L260.9,284.3 L258,283.4 L256.4,283 L257.3,281.3 L254.6,278.9 L249.4,276.2 L248.9,272.9 L247.7,271.7 L247.1,268 L243.5,266.5 L238.1,268.4 L233.3,264.8 L235,261.3 L233.3,259.8 L231.2,256.3 L233.1,254.9 L233.9,253.6 L233,251.6 L234.7,244.3 L232.7,243.3 L231.9,239.8 L233.3,236.6 L235.9,234.9 L236.3,232.4 L239.4,232.1 L244.6,229.1 L243.7,227.5 L241.3,228.7 L240.9,225.3 L238.6,224.5 L238.2,222.1 L236.5,221.8 L240.4,218.2 L239,216 L240.7,214.7 L243.5,209.4 L247.1,210.8 L249.9,209 L249.9,212.1 L248.7,213.5 L251.5,214.7 L253.6,213.8 L257.2,215.2 L261.5,220 L265.3,219.6 L268.2,217.8 L267.9,222.8 L269.9,226.1 L270.4,228.8 L273,233.1 L272.6,237.6 L275.3,240.2 L275.6,245 L276.4,247.6 L278.9,249.9 L282.6,250.1 L286.7,254 L287.4,255.6 L290.6,254 L292.2,256.6 L292,258.7 L290,259.3 L289.6,260.9 L289.5,263.3 L288.1,266.4 L283.9,267.9 L282,267.5 L280.8,269 L276.9,269 L276.1,271.8 Z" id="UMBRIA"></path>
                <polygon id="ABRUZZO" points="336.4 274.3 333 270.8 329.4 266.9 325.7 261.1 322.9 255.2 320.7 249 312.3 252 311.1 254.7 305.9 255.9 304.4 255.7 302.8 259.6 300.8 260.6 300.2 262.3 296.2 263.4 298.5 265.9 298.1 268.4 296.5 270.2 289.7 269.8 287.6 272.9 289.1 276.3 287.8 279.6 289.9 281.1 289.4 284.9 291.1 285.7 292.3 288.4 296.8 293.1 298.8 293.4 296.3 294.9 296.3 296.7 293.2 297.4 287 295 284.1 298.6 283.4 299.1 284.2 303.7 287.4 304.1 295.9 308.3 296.7 308.2 300.1 310.7 299.7 315.1 301.9 315 306.3 316.9 307.7 318.4 309.9 318.3 312.8 315.7 316 316.5 317.4 318.8 319.7 318.8 324.2 320.3 326.8 322.3 329 322.3 332 319.6 333.6 319.7 337.4 316.7 335.3 314.1 339 310.1 341.3 308.2 344.8 310.6 345.4 309.9 348.3 312 349.7 316.2 351.2 315.5 352.2 314.8 357.7 306 358.7 303.9 361.7 300.4 362.3 296.4 361.2 296.1 359.9 291.6 358.7 290.2 352.5 288.1 346.3 282.7 344.2 279.7 338.1 275.6"></polygon>
                <polygon id="MARCHE" points="287.4 255.6 286.7 254 282.6 250.1 278.9 249.9 276.4 247.6 275.6 245 275.3 240.2 272.6 237.6 273 233.1 270.4 228.8 269.9 226.1 267.9 222.8 268.2 217.8 265.3 219.6 261.5 220 257.2 215.2 253.6 213.8 251.5 214.7 248.7 213.5 249.9 212.1 249.9 209 247.1 210.8 243.5 209.4 243 207.3 246.5 204.9 247.8 202.8 248.6 205.2 249.9 202.8 246.7 200.1 249.3 193.9 252.3 192.2 254 192.2 254.9 190.1 257.3 191.3 258 193 259.7 192 261.7 195 263.7 194.8 265.9 192.4 266.6 186.9 268.8 187.2 275.3 191.1 285.8 199.4 289.3 202.2 295.9 205.9 299.2 207.2 300.5 205.8 303.5 208.8 305.6 209.9 307.3 215 312.3 225.8 314.4 231.3 316.8 235.6 317.8 239.2 318.6 242.8 320.7 249 312.3 252 311.1 254.7 305.9 255.9 304.4 255.7 302.8 259.6 300.8 260.6 300.2 262.3 296.2 263.4 292.9 260.1 289.6 260.9 290 259.3 292 258.7 292.2 256.6 290.6 254"></polygon>
                <path d="M167.3,177.1 L166.7,174.8 L163.6,174.2 L161.4,171.9 L157.2,172.2 L154.8,169.4 L153.4,168.9 L152,168 L149.2,167.4 L145.7,164.1 L145.6,161.6 L143.2,160.3 L138.9,160 L134.9,165.5 L132.6,167.2 L130.9,164.3 L128.6,163.1 L124.6,163.1 L123.3,164 L121.6,163.5 L122.2,160.6 L124,158 L123.9,155.6 L120.1,152.9 L117.9,153.7 L115.7,152.3 L111.5,151.9 L111.4,147.7 L113.1,147.7 L113.5,145.7 L116,146.9 L115.9,143.1 L118,139 L117.8,136.4 L115.7,134.8 L115.9,133 L120.9,122.4 L124.6,122.3 L125.9,123.2 L126.1,120.4 L128,121.6 L130.1,120.8 L130,122.7 L131.9,123.8 L134.9,123.4 L134.9,121.8 L138.7,123.9 L138.2,122.5 L141.2,122.3 L140.5,120.2 L141.9,121.8 L144.9,120.5 L146.4,121.6 L148.6,125.9 L153.4,125.3 L155.2,125.8 L160.6,129 L163.4,128.9 L164.7,131.8 L167.2,132.8 L170,133 L172.8,131.5 L174.8,128.6 L177.2,128.6 L178.5,131.1 L183.8,132.8 L188.5,130.3 L192.1,129.7 L195.6,131.4 L199.6,130.4 L201.6,129.5 L206.7,130 L212.4,131.1 L216.2,132.8 L220.2,130.3 L222.8,127.8 L225.9,127.2 L231.1,127.1 L235.2,127.8 L237.4,129.7 L241.2,130.2 L243.2,129.5 L244.3,133.8 L246.6,135.2 L248.8,138 L244.3,135.1 L242.7,143.2 L243.9,148.1 L244.7,149.7 L244.8,156.7 L246.6,164.2 L249.9,172.1 L251.4,174.1 L253.2,175.8 L254.2,177.4 L258.5,180.4 L261.1,183.7 L264.7,186.4 L266.6,186.9 L265.9,192.4 L263.7,194.8 L261.7,195 L259.7,192 L258,193 L257.3,191.3 L254.9,190.1 L254.7,186.8 L252.1,187.9 L250.7,190.5 L252.3,192.2 L249.3,193.9 L246.7,200.1 L241.9,201.8 L238.6,201 L237.1,201.4 L232.8,200.4 L230.5,198.6 L225.7,197.4 L221.5,194.3 L219.9,189.2 L218.4,187.7 L221.3,182.8 L222.4,179.6 L221.2,179.1 L217.4,180 L215.4,179.4 L216.4,178 L214.6,176.7 L212.7,177.5 L211.3,177.3 L208.4,173.7 L206.7,173.4 L202.4,177.3 L198.6,178.1 L198.8,179.5 L200.9,180.4 L198.4,181.4 L192,182.3 L189.2,180.3 L186.5,183.9 L181.8,181.3 L177,178.4 L174.5,178.7 L172.8,180.7 L171.1,180.7 L167.3,177.1 Z M242.8,199.5 L244.6,198.3 L244,197.5 L241.8,197.1 L242.8,199.5 Z" id="EMILIAROMAGNA"></path>
                <polygon id="LOMBARDIA" points="168.8 48.5 169.4 53.2 168.5 55.7 168.2 60.2 166.5 62.5 164.2 68.4 165.8 69.3 166.8 72.5 166.4 74.8 168.7 79.5 173.1 78.7 174 76.6 179.3 76.5 180.7 77.2 178.2 81.9 172.5 90.9 172.9 97.7 172.6 100.7 173.5 102.4 175.2 102.2 175.9 105.5 175.1 108.4 177.7 109.9 178.9 109 181.6 111.7 187.9 115.7 188.2 117.6 190.6 118.5 191.7 121.4 195 120.1 197.4 120.9 196.8 123.4 200.1 123.5 200.1 125.1 206.7 130 201.6 129.5 199.6 130.4 195.6 131.4 192.1 129.7 188.5 130.3 183.8 132.8 178.5 131.1 177.2 128.6 174.8 128.6 172.8 131.5 170 133 167.2 132.8 164.7 131.8 163.4 128.9 160.6 129 155.2 125.8 153.4 125.3 148.6 125.9 146.4 121.6 144.9 120.5 141.9 121.8 140.5 120.2 141.2 122.3 138.2 122.5 138.7 123.9 134.9 121.8 134.9 123.4 131.9 123.8 130 122.7 130.1 120.8 128 121.6 126.1 120.4 125.9 123.2 124.6 122.3 120.9 122.4 115.9 133 115.7 134.8 117.8 136.4 118 139 115.9 143.1 116 146.9 113.5 145.7 113.1 147.7 111.4 147.7 111.6 145.4 108.7 139.7 106.7 139.5 104.8 137.7 104.8 135.6 101.4 131.9 100.8 129.6 97.6 128.5 97.4 125.3 96.3 125 93 126.8 88.5 127 83.7 118.5 83.8 116.8 81.3 111 81.9 109.5 83.3 106.4 87 107.1 88.1 109.3 90 110.1 92.3 107.1 91.4 105.8 95.5 103.8 93 98.6 90.7 96.9 90.2 94.8 89.7 91.8 88.6 90.4 89 87.8 87.7 86.8 84.3 80.2 85.7 78.5 85.5 73 90.9 67.3 91.3 61.5 94.6 62.6 95.7 64 92.9 69 97.2 71.2 99 75.1 98.8 78.4 102.8 78.9 105.2 75.2 104.9 73.1 103.1 72.5 102 69.7 103.3 68.4 102.8 65.7 105.2 64.3 105.7 60.8 109.5 57.6 112.1 54 114 49.3 113.6 42.8 112.6 41.6 113.7 38.7 116.5 37.7 118.4 39.6 121 38.2 121.6 45.6 122.9 46.4 124.3 49.3 126.2 50.2 131 50.3 132.4 49 132.4 47.2 134.9 47.4 140.3 45.3 143.1 46.2 143.7 49.7 146 52 146.5 54.4 150.8 53 151.3 51.8 148.4 47.8 150.1 44.6 150.1 42.6 146.3 41.6 145.8 35.5 148 31.2 152.4 29.7 154.1 30.2 154.2 32.8 156.7 34.2 162.2 35.1 163.3 34.4 165.1 37.5 167.1 37.8 170.6 39.8 171.3 42.5 170.5 44.6 168.2 45.2 166.7 46.7"></polygon>
                <polygon id="TRENTINO" points="170.5 39.8 171.3 42.5 170.5 44.6 168.2 45.2 166.7 46.7 168.8 48.5 169.4 53.2 168.5 55.7 168.2 60.2 166.5 62.5 164.2 68.4 165.8 69.3 166.8 72.5 166.4 74.8 168.7 79.5 173.1 78.7 174 76.6 179.3 76.5 180.7 77.2 183.1 80.1 181.9 83.9 184.6 86.3 187.7 84.3 193 85 195.2 81.6 195.8 78.2 198.9 71.6 200.4 70.3 202.3 71.2 203.6 67.7 207.8 65.6 211.4 65.9 212.3 67.5 215.9 67.1 215.8 64.3 216.8 60 220.5 59.6 224.5 57.8 227.4 53.8 225.3 52.3 225.5 50.6 222.4 49.3 222.2 47.5 220.1 43.8 222 42.6 223.4 37.5 221.1 36.6 221 35.4 221.8 34.8 228.8 33 231.8 25.1 235.1 27 236.7 29.2 242.2 27 243.7 27.6 247.2 24 242.9 22 241.6 18.8 238.5 17.5 238.2 12.7 235.2 12.1 232.9 9.8 231.5 5.4 234.3 2.8 235.1 0 231.5 0.3 227.4 2.7 224.4 2.9 216.4 7.2 213.8 6.1 210.2 5.7 206.8 6.5 204.2 5.9 202.5 7.8 198.5 6.9 192 8.9 189.4 11.7 188 17.3 185.7 20.4 180.9 20.8 174 19.1 175.3 17.6 171.7 15.2 166.1 16.4 163 15.2 161.6 19.2 162.1 21.8 160.9 23 159.7 26.9 160.8 28.9 163.5 29.7 163.3 34.4 165.1 37.5 167.1 37.8"></polygon>
                <polygon id="VALLEDAOSTA" points="54.4 72.6 54.6 79.4 55.4 82.6 56.8 84.1 56.8 89 55.1 91.7 49.5 94 46.3 94 40.9 92.3 37.5 93.2 34 96.1 26.6 98.4 23.8 97.8 23.2 96.7 20.8 99.3 16.9 96.5 15.8 92 16.3 88.7 11.2 86 9.3 83.8 8.9 79.1 9.7 77.2 14.1 76.2 16.9 74.8 19.2 71.5 21 73.7 23.3 74.6 25.9 74.4 30.3 72.5 33.5 72.9 39.6 70.1 41.2 68.4 45.4 69.6 47.6 71.9 53.3 72.8 54.1 71.3 54.1 71.3"></polygon>
                <polygon id="LIGURIA" points="123.3 164 121.6 163.5 122.2 160.6 124 158 123.9 155.6 120.1 152.9 117.9 153.7 115.7 152.3 111.5 151.9 109.1 153.8 106.5 151.5 104.5 150.8 100.9 147.7 99.4 147.7 97.4 150.3 98.8 154.3 95.1 155.2 92.8 158.7 90.8 154 86 153.4 85.4 155.7 83.8 157.7 77.3 157.699997 75 159.8 70.9 157.3 70.7 157 70.2 156.5 67.8 160.4 68.3 163.3 66.7 164.4 65.2 167.6 62.4 169.9 62.5 177.5 60.9 179.2 58.3 180.1 59.2 181.6 58.6 181.9 50.7 180.8 48.6 179.9 47.7 182.6 45.5 183 42.9 188.9 39.6 191.8 36.1 196.5 37.1 201 45.5 201.2 49.5 199.4 57.2 197.6 61.9 195 64.7 192.4 66.3 191.4 65.7 189.8 68.5 186.1 69.3 182.6 72.8 179.2 76.9 177.2 77.1 175.2 79.5 170.5 83.8 167.3 86.7 165.9 90.8 163.3 95.2 163.1 96 164 99.4 164.1 102.7 165.6 108.3 167 109 169.1 111.8 170.5 112.7 167.6 118.7 171.2 119 172.5 121.7 174.5 123.7 174.2 124.9 175.9 127.6 177.3 129.7 179.9 132 180.4 136.3 184 138.4 185 139.5 182.2 144.7 186 147.5 185.7 148.7 183 146 181.8 145.4 179.7 141.9 178.8 142.2 177.2 140.4 177.6 139.7 173.5 135.3 170.4 132.6 167.2 130.9 164.3 128.6 163.1 124.6 163.1"></polygon>
                <polygon id="PIEMONTE" points="49.5 94 46.3 94 40.9 92.3 37.5 93.2 34 96.1 26.6 98.4 23.8 97.8 23.2 96.7 20.8 99.3 21.6 101.2 24.3 102.8 21.3 108 21.9 111.9 19.3 114.5 18.5 113.7 15.4 114.7 13.4 117.1 12 117.1 10.4 119.4 5.8 117.6 2.8 118.6 0 120.7 2.4 125.3 5 126.3 5.1 131.5 7.2 134 10.9 136 13.8 135.8 16.9 138.2 16.5 139.9 18.1 144.9 18.8 146.6 15.7 146.1 13.8 147.5 14 150.1 11.8 153 9.5 154.7 9.1 157.3 12.5 161.5 10.7 162.7 10.1 165.3 12.4 169.6 15.6 173.5 17.2 173.3 22 175.6 26.6 178.5 32.2 180.9 44.2 177.9 43.5 179.8 45.5 183 47.7 182.6 48.6 179.9 50.7 180.8 58.6 181.9 59.2 181.6 58.3 180.1 60.9 179.2 62.5 177.5 62.4 169.9 65.2 167.6 66.7 164.4 68.3 163.3 67.8 160.4 70.2 156.5 70.7 157 75 159.8 77.3000031 157.699997 83.8 157.699997 85.4 155.7 86 153.4 90.8 154 92.8 158.7 95.1 155.2 98.8 154.3 97.4 150.3 99.4 147.7 100.9 147.7 104.5 150.8 106.5 151.5 109.1 153.8 111.5 151.9 111.4 147.7 111.6 145.4 108.7 139.7 106.7 139.5 104.8 137.7 104.8 135.6 101.4 131.9 100.8 129.6 97.6 128.5 97.4 125.3 96.3 125 93 126.8 88.5 127 83.7 118.5 83.8 116.8 81.3 111 81.9 109.5 83.3 106.4 87 107.1 88.1 109.3 90 110.1 92.3 107.1 91.4 105.8 95.5 103.8 93 98.6 90.7 96.9 90.2 94.8 89.7 91.8 88.6 90.4 89 87.8 87.7 86.8 84.3 80.2 85.7 78.5 85.5 73 90.9 67.3 91.3 61.5 89.1 62.2 85.9 60.6 82.1 55.4 78.6 52.7 78.6 49.7 79.5 44.8 79.3 41.6 77.6 40.6 74.1 41.7 73 45 70.9 46.5 68.8 49.2 65.2 50.5 63.8 52.5 66.1 56 65.3 60.1 61.4 62.9 61 66 59.9 67.8 56.2 68.8 54.1 71.3 54.4 72.6 54.6 79.4 55.4 82.6 56.8 84.1 56.8 89 55.1 91.7"></polygon>
                <polygon id="VENETO" points="212.3 67.5 211.4 65.9 207.8 65.6 203.6 67.7 202.3 71.2 200.4 70.3 198.9 71.6 195.8 78.2 195.2 81.6 193 85 187.7 84.3 184.6 86.3 181.9 83.9 183.1 80.1 180.7 77.2 178.2 81.9 172.5 90.9 172.9 97.7 172.6 100.7 173.5 102.4 175.2 102.2 175.9 105.5 175.1 108.4 177.7 109.9 178.9 109 181.6 111.7 187.9 115.7 188.2 117.6 190.6 118.5 191.7 121.4 195 120.1 197.4 120.9 196.8 123.4 200.1 123.5 200.1 125.1 206.7 130 212.4 131.1 216.2 132.8 220.2 130.3 222.8 127.8 225.9 127.2 231.1 127.1 235.2 127.8 237.4 129.7 241.2 130.2 243.2 129.5 244.3 133.8 246.6 135.2 248.8 138 249.2 132 250.5 131.4 250 134.2 251 136.2 252.9 132.7 254.4 127 252.3 126.7 247.1 121.5 244.4 120.9 245.3 119.5 244.8 115.6 243.6 111.9 241.6 113.8 240.4 112.7 240 108 239.3 109.2 238 110 237.1 108.2 237.3 106.9 239.6 107.1 241.6 101.8 241 100.8 242 97.6 245.2 95 249 93.3 251.6 90.6 254.1 93 249.5 95.2 247.9 99.1 256.3 95.1 263.3 91.3 270.1 86.4 275 85.6 276.4 84.6 273.1 78.3 271.8 74.4 270.6 73.4 269.8 74.7 267.4 74.5 266.3 73.3 264.5 74.8 263 72.9 259.2 76.3 258.100006 76.4000015 257.676246 75.9762463 256.3 74.6 253.5 74.4 251.4 69.3 248 66.9 246.9 62.3 247.6 60.1 250 58.1 249.4 55 247.9 52.4 244.7 51.1 242.6 48.8 244 46.5 246.7 44.8 249.2 40.3 251.2 37 254.9 36.5 255.7 33.2 259.5 32 258.9 25.5 255.6 25 251.1 25.3 247.2 24 243.7 27.6 242.2 27 236.7 29.2 235.1 27 231.8 25.1 228.8 33 221.8 34.8 221 35.4 221.1 36.6 223.4 37.5 222 42.6 220.1 43.8 222.2 47.5 222.4 49.3 225.5 50.6 225.3 52.3 227.4 53.8 224.5 57.8 220.5 59.6 216.8 60 215.8 64.3 215.9 67.1"></polygon>
                <polygon id="FRIULI" points="269.8 74.7 267.4 74.5 266.3 73.3 264.5 74.8 263 72.9 259.2 76.3 258.1 76.4 256.3 74.6 253.5 74.4 251.4 69.3 248 66.9 246.9 62.3 247.6 60.1 250 58.1 249.4 55 247.9 52.4 244.7 51.1 242.6 48.8 244 46.5 246.7 44.8 249.2 40.3 251.2 37 254.9 36.5 255.7 33.2 259.5 32 258.9 25.5 262.4 27.3 272.2 27.5 275.6 28.1 279.3 29.9 285.2 28.7 289.5 28.6 297.7 30.9 299 30.7 298.7 33.9 297.5 35.4 295.1 35.7 292.3 39.1 288 42 285.7 45.4 287.9 50.3 288.4 49 292.1 49.7 294.2 51.4 297.5 51.4 296.9 54.8 292.4 58.7 290.8 62.4 292.9 64.6 296.9 63.3 297.7 64.4 295.8 70.7 296.8 74.2 299.9 74.9 305.1 77.5 308.8 83 310.4 84 308.6 86.9 302.8 86.8 303.5 85.5 305.9 85.5 303.7 83.3 304.3 81.9 299.4 76.7 296.6 75.4 295.3 75.1 294.2 77.1 295.6 78.4 290.4 82.1 288.2 82.1 290.5 80.6 290.1 79.5 282.8 78 281.4 76.9 278.7 78.3 276.7 77.6 277.3 79.4 275.1 81 276.1 82.4 278.6 81.4 276.4 84.6 273.1 78.3 271.8 74.4 270.6 73.4"></polygon>
            </g>
        </g>
    </g>
</svg>